<?xml version="1.0" encoding="UTF-8"?>
<svg version="1.1" xmlns="http://www.w3.org/2000/svg" width="128" height="128">
<path d="M0 0 C14.66593153 10.19568513 25.60840641 23.74932626 29.74780273 41.46484375 C31.86603529 54.29763126 31.44584138 68.79991362 26.125 80.75 C25.76277344 81.62269531 25.40054688 82.49539062 25.02734375 83.39453125 C18.03614222 98.82257259 4.62588113 110.85492877 -11.06298828 116.94482422 C-25.81539058 122.12508547 -44.56041965 122.30272343 -58.875 115.75 C-59.94492187 115.275625 -61.01484375 114.80125 -62.1171875 114.3125 C-78.62966286 106.23110029 -89.48023995 92.92244554 -95.875 75.75 C-100.17617326 61.8353272 -99.97024021 44.06519737 -93.875 30.75 C-93.1634375 29.14511719 -93.1634375 29.14511719 -92.4375 27.5078125 C-84.89523746 12.09693952 -72.63455422 0.5722872 -56.375 -5.1875 C-37.73814183 -11.3787986 -16.99837717 -10.14228624 0 0 Z " fill="#057897" transform="translate(97.875,8.25)"/>
<path d="M0 0 C13.2 0 26.4 0 40 0 C40 22.11 40 44.22 40 67 C41.32 67 42.64 67 44 67 C44 61.06 44 55.12 44 49 C47.3 49 50.6 49 54 49 C54 54.94 54 60.88 54 67 C54.66 67 55.32 67 56 67 C56 61.06 56 55.12 56 49 C59.3 49 62.6 49 66 49 C66 54.94 66 60.88 66 67 C69.3 67 72.6 67 76 67 C76 69.31 76 71.62 76 74 C49.6 74 23.2 74 -4 74 C-4 71.69 -4 69.38 -4 67 C-2.68 67 -1.36 67 0 67 C0 44.89 0 22.78 0 0 Z " fill="#F1EFF3" transform="translate(28,31)"/>
<path d="M0 0 C9.9 0 19.8 0 30 0 C30 18.15 30 36.3 30 55 C28.35 55 26.7 55 25 55 C25 49.06 25 43.12 25 37 C21.7 37 18.4 37 15 37 C15 42.94 15 48.88 15 55 C14.34 55 13.68 55 13 55 C13 49.06 13 43.12 13 37 C9.7 37 6.4 37 3 37 C3 42.94 3 48.88 3 55 C2.01 55 1.02 55 0 55 C0 36.85 0 18.7 0 0 Z " fill="#2F5A73" transform="translate(69,43)"/>
<path d="M0 0 C0.33 0 0.66 0 1 0 C1 22.11 1 44.22 1 67 C15.19 67 29.38 67 44 67 C44 61.06 44 55.12 44 49 C47.3 49 50.6 49 54 49 C54 54.94 54 60.88 54 67 C54.66 67 55.32 67 56 67 C56 61.06 56 55.12 56 49 C59.3 49 62.6 49 66 49 C66 54.94 66 60.88 66 67 C69.3 67 72.6 67 76 67 C76 69.31 76 71.62 76 74 C49.6 74 23.2 74 -4 74 C-4 71.69 -4 69.38 -4 67 C-2.68 67 -1.36 67 0 67 C0 44.89 0 22.78 0 0 Z " fill="#C0CFD8" transform="translate(28,31)"/>
<path d="M0 0 C14.85 0 29.7 0 45 0 C45 2.64 45 5.28 45 8 C30.15 8 15.3 8 0 8 C0 5.36 0 2.72 0 0 Z " fill="#2C5872" transform="translate(26,23)"/>
<path d="M0 0 C4.29 0 8.58 0 13 0 C13 5.94 13 11.88 13 18 C8.71 18 4.42 18 0 18 C0 12.06 0 6.12 0 0 Z " fill="#9AE6FB" transform="translate(42,80)"/>
<path d="M0 0 C3.3 0 6.6 0 10 0 C10 5.94 10 11.88 10 18 C6.7 18 3.4 18 0 18 C0 12.06 0 6.12 0 0 Z " fill="#F1EEF1" transform="translate(72,80)"/>
<path d="M0 0 C2.97 0 5.94 0 9 0 C9 5.94 9 11.88 9 18 C6.03 18 3.06 18 0 18 C0 12.06 0 6.12 0 0 Z " fill="#F2EFF2" transform="translate(84,80)"/>
<path d="M0 0 C3.47914941 -0.02887814 6.95826831 -0.04675687 10.4375 -0.0625 C11.92733398 -0.07506836 11.92733398 -0.07506836 13.44726562 -0.08789062 C14.39150391 -0.09111328 15.33574219 -0.09433594 16.30859375 -0.09765625 C17.62041626 -0.10551147 17.62041626 -0.10551147 18.95874023 -0.11352539 C21 0 21 0 22 1 C22 2.98 22 4.96 22 7 C14.74 7 7.48 7 0 7 C0 4.69 0 2.38 0 0 Z " fill="#8DD7ED" transform="translate(72,64)"/>
<path d="M0 0 C7.26 0 14.52 0 22 0 C22 1.98 22 3.96 22 6 C14.74 6 7.48 6 0 6 C0 4.02 0 2.04 0 0 Z " fill="#97E4FA" transform="translate(72,50)"/>
<path d="M0 0 C3.63 0 7.26 0 11 0 C11 3.63 11 7.26 11 11 C7.37 11 3.74 11 0 11 C0 7.37 0 3.74 0 0 Z " fill="#9EE6FB" transform="translate(34,64)"/>
<path d="M0 0 C3.63 0 7.26 0 11 0 C11 3.63 11 7.26 11 11 C7.37 11 3.74 11 0 11 C0 7.37 0 3.74 0 0 Z " fill="#9EE6FB" transform="translate(34,50)"/>
<path d="M0 0 C0.8146875 0.00257812 1.629375 0.00515625 2.46875 0.0078125 C3.2834375 0.00523438 4.098125 0.00265625 4.9375 0 C6.96875 0.1328125 6.96875 0.1328125 7.96875 1.1328125 C8.11132189 4.46899481 8.01103157 7.79256856 7.96875 11.1328125 C4.33875 11.1328125 0.70875 11.1328125 -3.03125 11.1328125 C-3.12890625 3.41796875 -3.12890625 3.41796875 -3.03125 1.1328125 C-2.03125 0.1328125 -2.03125 0.1328125 0 0 Z " fill="#9EE6FB" transform="translate(37.03125,35.8671875)"/>
<path d="M0 0 C7.26 0 14.52 0 22 0 C22.33 1.65 22.66 3.3 23 5 C15.08 5 7.16 5 -1 5 C-0.67 3.35 -0.34 1.7 0 0 Z " fill="#D4DDE3" transform="translate(72,38)"/>
<path d="M0 0 C3.3 0 6.6 0 10 0 C10 3.63 10 7.26 10 11 C6.7 11 3.4 11 0 11 C0 7.37 0 3.74 0 0 Z " fill="#9AE6FB" transform="translate(52,64)"/>
<path d="M0 0 C3.3 0 6.6 0 10 0 C10 3.63 10 7.26 10 11 C6.7 11 3.4 11 0 11 C0 7.37 0 3.74 0 0 Z " fill="#9AE6FB" transform="translate(52,50)"/>
<path d="M0 0 C3.3 0 6.6 0 10 0 C10 3.63 10 7.26 10 11 C6.7 11 3.4 11 0 11 C0 7.37 0 3.74 0 0 Z " fill="#9BE6FB" transform="translate(52,36)"/>
</svg>
