<?xml version="1.0" encoding="UTF-8"?>
<svg version="1.1" xmlns="http://www.w3.org/2000/svg" width="128" height="128">
<path d="M0 0 C11.95031597 9.12252645 19.82379348 19.71356203 22.15625 34.77734375 C24.25140215 54.41939515 17.91048481 73.5664574 5.75 89 C4.40687448 90.59271015 3.05290979 92.17635204 1.6875 93.75 C1.06101562 94.50925781 0.43453125 95.26851563 -0.2109375 96.05078125 C-5.30925006 102.07511385 -11.08355545 106.92909531 -17.3125 111.75 C-18.32570313 112.57951172 -18.32570313 112.57951172 -19.359375 113.42578125 C-23.1886542 116.43329035 -25.49041533 117.2997296 -30.3125 116.75 C-33.1015625 115.16796875 -33.1015625 115.16796875 -35.9375 112.9375 C-36.44893555 112.53587646 -36.96037109 112.13425293 -37.48730469 111.72045898 C-56.79871006 96.31675247 -73.44711 76.62616597 -76.75 51.3125 C-78.28873998 36.84090124 -75.46484086 23.11468957 -66.5 11.4375 C-49.90885201 -7.91367074 -22.27559416 -14.7715245 0 0 Z " fill="#DCDCDC" transform="translate(91.3125,9.25)"/>
<path d="M0 0 C11.95031597 9.12252645 19.82379348 19.71356203 22.15625 34.77734375 C24.25140215 54.41939515 17.91048481 73.5664574 5.75 89 C4.40687448 90.59271015 3.05290979 92.17635204 1.6875 93.75 C1.06101562 94.50925781 0.43453125 95.26851563 -0.2109375 96.05078125 C-5.30925006 102.07511385 -11.08355545 106.92909531 -17.3125 111.75 C-18.32570313 112.57951172 -18.32570313 112.57951172 -19.359375 113.42578125 C-23.1886542 116.43329035 -25.49041533 117.2997296 -30.3125 116.75 C-33.1015625 115.16796875 -33.1015625 115.16796875 -35.9375 112.9375 C-36.44893555 112.53587646 -36.96037109 112.13425293 -37.48730469 111.72045898 C-56.79871006 96.31675247 -73.44711 76.62616597 -76.75 51.3125 C-78.28873998 36.84090124 -75.46484086 23.11468957 -66.5 11.4375 C-49.90885201 -7.91367074 -22.27559416 -14.7715245 0 0 Z M-52.3125 9.75 C-53.1375 10.306875 -53.9625 10.86375 -54.8125 11.4375 C-58.41358732 14.76850577 -60.80771007 18.55705029 -63.3125 22.75 C-63.73144531 23.38292969 -64.15039062 24.01585938 -64.58203125 24.66796875 C-69.34971338 33.10828234 -68.46703077 44.874873 -66.65234375 54.109375 C-64.08242427 61.98601133 -59.09853052 67.96396948 -53.3125 73.75 C-50.3425 73.75 -47.3725 73.75 -44.3125 73.75 C-43.9825 66.49 -43.6525 59.23 -43.3125 51.75 C-40.3425 51.75 -37.3725 51.75 -34.3125 51.75 C-33.9825 59.01 -33.6525 66.27 -33.3125 73.75 C-28.89629215 73.95797258 -24.4973052 74.13644861 -20.08007812 74.24438477 C-18.5820946 74.28938233 -17.0845006 74.35060971 -15.58789062 74.42895508 C-6.65154994 75.06256036 -6.65154994 75.06256036 1.42041016 71.85595703 C5.45416023 67.39895178 8.40878456 62.3001386 10.6875 56.75 C11.21537109 55.68845703 11.21537109 55.68845703 11.75390625 54.60546875 C14.62962634 45.80985625 14.29807321 34.04684183 10.42358398 25.64038086 C5.80027676 16.80317903 0.32724063 10.71088333 -8.3125 5.75 C-9.38757813 5.12351562 -9.38757813 5.12351562 -10.484375 4.484375 C-24.14067896 -2.20250487 -40.5380489 0.98761779 -52.3125 9.75 Z " fill="#E14634" transform="translate(91.3125,9.25)"/>
<path d="M0 0 C0.886875 0.66 1.77375 1.32 2.6875 2 C3.5125 2.556875 4.3375 3.11375 5.1875 3.6875 C11.97377362 9.9648031 17.6569067 19.55834362 18.21875 28.90234375 C18.23567961 30.58067611 18.22472454 32.2594951 18.1875 33.9375 C18.17468994 34.81704346 18.16187988 35.69658691 18.14868164 36.6027832 C17.81409071 47.30472877 14.25516313 55.2918698 6.6875 63 C5.2025 63.495 5.2025 63.495 3.6875 64 C3.66284608 59.46102295 3.64466211 54.92208457 3.63256836 50.38305664 C3.6275286 48.83780234 3.6206968 47.29255284 3.61206055 45.74731445 C3.59997924 43.53074971 3.59426827 41.31424782 3.58984375 39.09765625 C3.58468246 38.4028566 3.57952118 37.70805695 3.57420349 36.99220276 C3.57400723 35.3277067 3.62560871 33.66334501 3.6875 32 C4.0175 31.67 4.3475 31.34 4.6875 31 C5.18598019 27.84295878 5.44621075 26.03484301 4.6875 23 C2.79054324 20.76430096 0.71683081 18.90800332 -1.47265625 16.9609375 C-4.21338188 14.03982441 -4.15318528 11.90321071 -4.3125 8 C-7.31854962 6.49697519 -10.08915972 6.87005423 -13.4375 6.8671875 C-14.1402002 6.86623077 -14.84290039 6.86527405 -15.56689453 6.86428833 C-17.05306081 6.86360762 -18.53923006 6.8654543 -20.02539062 6.86962891 C-22.30345319 6.87497875 -24.58131859 6.86968028 -26.859375 6.86328125 C-28.30208377 6.86394205 -29.74479242 6.86522325 -31.1875 6.8671875 C-33.16363281 6.86887939 -33.16363281 6.86887939 -35.1796875 6.87060547 C-38.21745023 6.78167446 -38.21745023 6.78167446 -40.3125 8 C-40.35375 9.010625 -40.395 10.02125 -40.4375 11.0625 C-40.82560883 14.94358831 -42.51533245 16.39445645 -45.375 18.9375 C-48.38977717 21.62462838 -48.38977717 21.62462838 -49.875 25.25 C-49.93186135 27.67848384 -49.93186135 27.67848384 -49.3125 31 C-48.9825 31.33 -48.6525 31.66 -48.3125 32 C-48.2241033 34.3756852 -48.19719695 36.72208674 -48.21484375 39.09765625 C-48.2162587 39.80651474 -48.21767365 40.51537323 -48.21913147 41.24571228 C-48.22474557 43.51801712 -48.23730037 45.79022475 -48.25 48.0625 C-48.25501319 49.59960796 -48.25957641 51.13671745 -48.26367188 52.67382812 C-48.27471958 56.44925642 -48.29199359 60.22461171 -48.3125 64 C-51.91665032 62.33622309 -53.58145298 60.71619473 -55.875 57.4375 C-56.45378906 56.63183594 -57.03257813 55.82617188 -57.62890625 54.99609375 C-63.00510228 45.42871009 -63.9635301 34.75839692 -62.3125 24 C-58.93358323 12.55268674 -51.40519892 3.63277692 -41.15625 -2.234375 C-27.8983673 -9.0611952 -12.49341 -7.54319094 0 0 Z " fill="#FEFCFC" transform="translate(86.3125,17)"/>
<path d="M0 0 C1.04837036 -0.00287018 1.04837036 -0.00287018 2.11791992 -0.00579834 C3.59391643 -0.00715783 5.06992498 -0.00347782 6.54589844 0.00488281 C8.80430984 0.01558618 11.06192582 0.0049801 13.3203125 -0.0078125 C14.75521009 -0.00649086 16.19010718 -0.00392838 17.625 0 C18.93082031 0.00225586 20.23664063 0.00451172 21.58203125 0.00683594 C24.8125 0.265625 24.8125 0.265625 27.8125 2.265625 C27.874375 3.296875 27.93625 4.328125 28 5.390625 C28.91131406 9.73689205 29.68464247 10.36538594 32.875 13.203125 C36.66261574 16.66608796 36.66261574 16.66608796 37.375 19.515625 C37.375 21.703125 37.375 21.703125 36.8125 25.265625 C35.8125 26.265625 35.8125 26.265625 33.52734375 26.36328125 C32.61082031 26.35167969 31.69429687 26.34007813 30.75 26.328125 C29.83089844 26.31910156 28.91179687 26.31007813 27.96484375 26.30078125 C27.25457031 26.28917969 26.54429688 26.27757813 25.8125 26.265625 C25.78671875 25.68554688 25.7609375 25.10546875 25.734375 24.5078125 C25.32266897 18.8374977 24.22571793 15.77988097 20.8125 11.265625 C20.8125 10.605625 20.8125 9.945625 20.8125 9.265625 C18.1725 9.595625 15.5325 9.925625 12.8125 10.265625 C13.13992187 10.97074219 13.46734375 11.67585938 13.8046875 12.40234375 C15.43405806 17.03152446 14.93009729 21.38533745 14.8125 26.265625 C10.8525 26.265625 6.8925 26.265625 2.8125 26.265625 C2.54464286 15.14955357 2.54464286 15.14955357 4.8125 10.265625 C2.1725 9.935625 -0.4675 9.605625 -3.1875 9.265625 C-3.47625 10.02875 -3.765 10.791875 -4.0625 11.578125 C-5.1875 14.265625 -5.1875 14.265625 -7.1875 17.265625 C-7.64144552 19.54475438 -7.64144552 19.54475438 -7.8125 21.953125 C-7.88726562 22.76136719 -7.96203125 23.56960937 -8.0390625 24.40234375 C-8.08804688 25.01722656 -8.13703125 25.63210937 -8.1875 26.265625 C-9.83324566 26.29250651 -11.47911413 26.31196623 -13.125 26.328125 C-14.04152344 26.33972656 -14.95804688 26.35132812 -15.90234375 26.36328125 C-18.1875 26.265625 -18.1875 26.265625 -19.1875 25.265625 C-19.68598019 22.10858378 -19.94621075 20.30046801 -19.1875 17.265625 C-17.28937525 15.0285494 -15.21408076 13.17117578 -13.0234375 11.22265625 C-10.44225215 8.47122251 -10.40783717 5.9379111 -10.1875 2.265625 C-6.45106456 -0.22533196 -4.46205265 0.00770838 0 0 Z " fill="#E14E3D" transform="translate(55.1875,22.734375)"/>
<path d="M0 0 C0.8146875 0.00257812 1.629375 0.00515625 2.46875 0.0078125 C3.2834375 0.00523438 4.098125 0.00265625 4.9375 0 C6.96875 0.1328125 6.96875 0.1328125 7.96875 1.1328125 C8.05575342 2.76754132 8.07576063 4.40595305 8.06640625 6.04296875 C8.06390869 6.9337915 8.06141113 7.82461426 8.05883789 8.74243164 C8.04973389 9.88188232 8.04062988 11.02133301 8.03125 12.1953125 C8.010625 15.8046875 7.99 19.4140625 7.96875 23.1328125 C18.19875 23.1328125 28.42875 23.1328125 38.96875 23.1328125 C34.89683154 26.39034727 32.9795906 27.75587594 28.34375 29.3203125 C27.40273437 29.64386719 26.46171875 29.96742187 25.4921875 30.30078125 C24.24308594 30.71263672 24.24308594 30.71263672 22.96875 31.1328125 C21.97875 31.4628125 20.98875 31.7928125 19.96875 32.1328125 C8.10031821 33.16118514 -1.03630837 30.35188729 -11.03125 24.1328125 C-11.03125 23.8028125 -11.03125 23.4728125 -11.03125 23.1328125 C-8.39125 23.1328125 -5.75125 23.1328125 -3.03125 23.1328125 C-3.03648682 22.471604 -3.04172363 21.81039551 -3.04711914 21.12915039 C-3.06782656 18.15121399 -3.08089012 15.17329268 -3.09375 12.1953125 C-3.10212891 11.15439453 -3.11050781 10.11347656 -3.11914062 9.04101562 C-3.12236328 8.05166016 -3.12558594 7.06230469 -3.12890625 6.04296875 C-3.13414307 5.12652588 -3.13937988 4.21008301 -3.14477539 3.26586914 C-2.99461694 0.44450481 -2.81728032 0.18420679 0 0 Z " fill="#C6C0C0" transform="translate(50.03125,59.8671875)"/>
<path d="M0 0 C0.8146875 0.00257812 1.629375 0.00515625 2.46875 0.0078125 C3.2834375 0.00523438 4.098125 0.00265625 4.9375 0 C6.96875 0.1328125 6.96875 0.1328125 7.96875 1.1328125 C8.05575342 2.76754132 8.07576063 4.40595305 8.06640625 6.04296875 C8.06318359 7.03232422 8.05996094 8.02167969 8.05664062 9.04101562 C8.04826172 10.08193359 8.03988281 11.12285156 8.03125 12.1953125 C8.02673828 13.24009766 8.02222656 14.28488281 8.01757812 15.36132812 C8.00574927 17.95184704 7.98781319 20.54233672 7.96875 23.1328125 C4.33875 23.1328125 0.70875 23.1328125 -3.03125 23.1328125 C-3.05807987 19.48693081 -3.07800569 15.84124404 -3.09375 12.1953125 C-3.10212891 11.15439453 -3.11050781 10.11347656 -3.11914062 9.04101562 C-3.12397461 7.55698242 -3.12397461 7.55698242 -3.12890625 6.04296875 C-3.13414307 5.12652588 -3.13937988 4.21008301 -3.14477539 3.26586914 C-2.99461694 0.44450481 -2.81728032 0.18420679 0 0 Z " fill="#303449" transform="translate(50.03125,59.8671875)"/>
<path d="M0 0 C1.1859375 0.00257812 2.371875 0.00515625 3.59375 0.0078125 C4.7796875 0.00523438 5.965625 0.00265625 7.1875 0 C10.09375 0.1328125 10.09375 0.1328125 11.09375 1.1328125 C11.19226171 2.96397133 11.22347629 4.79901183 11.21875 6.6328125 C11.22132812 7.633125 11.22390625 8.6334375 11.2265625 9.6640625 C11.09375 12.1328125 11.09375 12.1328125 10.09375 13.1328125 C7.92894203 13.2317419 5.76081215 13.2625235 3.59375 13.2578125 C2.4078125 13.26039062 1.221875 13.26296875 0 13.265625 C-2.90625 13.1328125 -2.90625 13.1328125 -3.90625 12.1328125 C-4.00476171 10.30165367 -4.03597629 8.46661317 -4.03125 6.6328125 C-4.03382812 5.6325 -4.03640625 4.6321875 -4.0390625 3.6015625 C-3.84654206 0.02294734 -3.62875686 0.16583029 0 0 Z " fill="#5EC7DF" transform="translate(69.90625,59.8671875)"/>
<path d="M0 0 C1.98 0 3.96 0 6 0 C9.68547232 5.68176982 9.23996313 10.44100771 9 17 C5.04 17 1.08 17 -3 17 C-3.42857143 5.28571429 -3.42857143 5.28571429 0 0 Z " fill="#DF4433" transform="translate(61,32)"/>
<path d="M0 0 C4.23288232 -0.60469747 6.66524408 -0.86578762 10.3125 1.5 C13.20738896 4.14675562 15.61836146 6.37594695 16.53515625 10.27734375 C16.5625 12.4375 16.5625 12.4375 16 16 C15 17 15 17 12.71484375 17.09765625 C11.34005859 17.08025391 11.34005859 17.08025391 9.9375 17.0625 C9.01839844 17.05347656 8.09929687 17.04445313 7.15234375 17.03515625 C6.44207031 17.02355469 5.73179688 17.01195313 5 17 C4.96132812 16.12988281 4.96132812 16.12988281 4.921875 15.2421875 C4.51016897 9.5718727 3.41321793 6.51425597 0 2 C0 1.34 0 0.68 0 0 Z " fill="#E14C3B" transform="translate(76,32)"/>
<path d="M0 0 C0.886875 0.103125 1.77375 0.20625 2.6875 0.3125 C1.56298273 3.2844385 0.46456209 5.64690687 -1.3125 8.3125 C-1.76644552 10.59162938 -1.76644552 10.59162938 -1.9375 13 C-2.01226562 13.80824219 -2.08703125 14.61648437 -2.1640625 15.44921875 C-2.21304688 16.06410156 -2.26203125 16.67898437 -2.3125 17.3125 C-3.95824566 17.33938151 -5.60411413 17.35884123 -7.25 17.375 C-8.16652344 17.38660156 -9.08304688 17.39820312 -10.02734375 17.41015625 C-12.3125 17.3125 -12.3125 17.3125 -13.3125 16.3125 C-13.81651133 11.10438296 -13.81651133 11.10438296 -13.3125 8.3125 C-11.125 6.625 -11.125 6.625 -8.3125 5.3125 C-7.508125 4.425625 -6.70375 3.53875 -5.875 2.625 C-3.3125 0.3125 -3.3125 0.3125 0 0 Z " fill="#E24C3A" transform="translate(49.3125,31.6875)"/>
<path d="M0 0 C2.97 0 5.94 0 9 0 C10.65 2.97 12.3 5.94 14 9 C10.7 9 7.4 9 4 9 C4 11.64 4 14.28 4 17 C3.67 17 3.34 17 3 17 C2.92652344 15.91332031 2.92652344 15.91332031 2.8515625 14.8046875 C2.44793848 9.58541133 1.98724193 4.90186342 0 0 Z " fill="#DFD2D1" transform="translate(67,32)"/>
<path d="M0 0 C2.97 0 5.94 0 9 0 C8.690625 0.763125 8.38125 1.52625 8.0625 2.3125 C6.66197419 7.17314841 6.34020266 11.96858173 6 17 C5.67 17 5.34 17 5 17 C5 14.36 5 11.72 5 9 C1.7 9 -1.6 9 -5 9 C-3.35 6.03 -1.7 3.06 0 0 Z " fill="#DFD2D0" transform="translate(52,32)"/>
<path d="M0 0 C6.91456145 -0.71529946 6.91456145 -0.71529946 9.8671875 1.23046875 C11.44728042 2.76142003 12.81015971 4.147635 14 6 C14 6.99 14 7.98 14 9 C10.89855484 9.42568855 8.08464345 9.6035172 5 9 C2.69879375 6.9982658 1.24869075 4.77347392 0 2 C0 1.34 0 0.68 0 0 Z " fill="#C93B30" transform="translate(76,32)"/>
<path d="M0 0 C3.3 0 6.6 0 10 0 C10 2.64 10 5.28 10 8 C6.7 8 3.4 8 0 8 C0 5.36 0 2.72 0 0 Z " fill="#FFFFFF" transform="translate(71,41)"/>
<path d="M0 0 C3.3 0 6.6 0 10 0 C10 2.64 10 5.28 10 8 C6.7 8 3.4 8 0 8 C0 5.36 0 2.72 0 0 Z " fill="#FFFFFF" transform="translate(47,41)"/>
<path d="M0 0 C1.4540625 0.0309375 1.4540625 0.0309375 2.9375 0.0625 C4.70212683 3.15059695 4.9375 4.29562136 4.9375 8.0625 C1.3075 8.0625 -2.3225 8.0625 -6.0625 8.0625 C-3.88526119 0.07929104 -3.88526119 0.07929104 0 0 Z " fill="#C7382D" transform="translate(64.0625,31.9375)"/>
<path d="M0 0 C-1.24766269 3.45506592 -2.45584976 6.319556 -5 9 C-7.48046875 9.390625 -7.48046875 9.390625 -10.1875 9.25 C-11.08855469 9.21390625 -11.98960938 9.1778125 -12.91796875 9.140625 C-13.60503906 9.09421875 -14.29210938 9.0478125 -15 9 C-13.33333333 7.33333333 -11.66666667 5.66666667 -10 4 C-9.0409375 2.8553125 -9.0409375 2.8553125 -8.0625 1.6875 C-5.30843798 -0.56582347 -3.45968858 -0.31451714 0 0 Z " fill="#C8392E" transform="translate(52,32)"/>
</svg>
