<?xml version="1.0" encoding="UTF-8"?>
<svg version="1.1" xmlns="http://www.w3.org/2000/svg" width="128" height="128">
<path d="M0 0 C15.56921414 10.82364286 26.2305434 25.03192514 30.125 43.75 C30.55819557 47.6570399 30.65026973 51.50853678 30.625 55.4375 C30.61927979 56.48188232 30.61355957 57.52626465 30.60766602 58.60229492 C30.18363377 77.14692382 22.5102429 91.91333263 9.125 104.75 C-3.53915933 115.12813696 -17.39531506 120.35202081 -33.75 120.1875 C-35.3270874 120.17722778 -35.3270874 120.17722778 -36.93603516 120.16674805 C-44.91290106 120.00207948 -51.52815505 119.02122293 -58.875 115.75 C-59.74769531 115.38777344 -60.62039062 115.02554688 -61.51953125 114.65234375 C-76.79570117 107.7299626 -87.84436076 95.10962165 -94.09765625 79.74609375 C-99.75563856 64.51618437 -100.75500398 45.7795325 -93.875 30.75 C-93.1634375 29.14511719 -93.1634375 29.14511719 -92.4375 27.5078125 C-84.89523746 12.09693952 -72.63455422 0.5722872 -56.375 -5.1875 C-37.73814183 -11.3787986 -16.99837717 -10.14228624 0 0 Z " fill="#226EB6" transform="translate(97.875,8.25)"/>
<path d="M0 0 C12.54 0 25.08 0 38 0 C38 11.55 38 23.1 38 35 C38.66 35 39.32 35 40 35 C40 27.41 40 19.82 40 12 C44.62 12 49.24 12 54 12 C54 19.59 54 27.18 54 35 C55.485 35.495 55.485 35.495 57 36 C56.67 36.99 56.34 37.98 56 39 C31.58 39 7.16 39 -18 39 C-18 37.68 -18 36.36 -18 35 C-17.34 35 -16.68 35 -16 35 C-16 27.41 -16 19.82 -16 12 C-11.38 12 -6.76 12 -2 12 C-2 19.59 -2 27.18 -2 35 C-1.34 35 -0.68 35 0 35 C0 23.45 0 11.9 0 0 Z " fill="#F8FAFC" transform="translate(45,62)"/>
<path d="M0 0 C0.87760986 -0.00315216 1.75521973 -0.00630432 2.65942383 -0.009552 C3.61357178 -0.00752777 4.56771973 -0.00550354 5.55078125 -0.00341797 C6.52362061 -0.00437469 7.49645996 -0.00533142 8.4987793 -0.00631714 C10.56005925 -0.00699905 12.62134133 -0.00514399 14.68261719 -0.00097656 C17.84965813 0.00437153 21.01655725 -0.00092119 24.18359375 -0.00732422 C26.1809899 -0.00666344 28.17838596 -0.00538228 30.17578125 -0.00341797 C31.1299292 -0.0054422 32.08407715 -0.00746643 33.06713867 -0.009552 C34.38355347 -0.00482376 34.38355347 -0.00482376 35.7265625 0 C36.50298096 0.00079559 37.27939941 0.00159119 38.0793457 0.00241089 C39.86328125 0.12939453 39.86328125 0.12939453 40.86328125 1.12939453 C40.99609375 2.94189453 40.99609375 2.94189453 40.98828125 5.12939453 C40.99214844 6.21220703 40.99214844 6.21220703 40.99609375 7.31689453 C40.86328125 9.12939453 40.86328125 9.12939453 39.86328125 10.12939453 C38.48718243 10.22734764 37.10614243 10.25737541 35.7265625 10.25878906 C34.41014771 10.2635173 34.41014771 10.2635173 33.06713867 10.26834106 C32.11299072 10.26631683 31.15884277 10.2642926 30.17578125 10.26220703 C28.71652222 10.26364212 28.71652222 10.26364212 27.2277832 10.2651062 C25.16650325 10.26578811 23.10522117 10.26393306 21.04394531 10.25976562 C17.87690437 10.25441754 14.71000525 10.25971025 11.54296875 10.26611328 C9.5455726 10.2654525 7.54817654 10.26417134 5.55078125 10.26220703 C4.5966333 10.26423126 3.64248535 10.26625549 2.65942383 10.26834106 C1.78181396 10.2651889 0.9042041 10.26203674 0 10.25878906 C-0.77641846 10.25799347 -1.55283691 10.25719788 -2.3527832 10.25637817 C-4.13671875 10.12939453 -4.13671875 10.12939453 -5.13671875 9.12939453 C-5.26953125 7.31689453 -5.26953125 7.31689453 -5.26171875 5.12939453 C-5.26429687 4.40751953 -5.266875 3.68564453 -5.26953125 2.94189453 C-5.01185135 -0.57467818 -3.04426233 0.00311944 0 0 Z " fill="#FDFDFE" transform="translate(46.13671875,48.87060546875)"/>
<path d="M0 0 C2.58297781 2.18991597 4.48415844 3.96831688 6 7 C6.13860991 11.00305407 6.04262206 14.99352624 6 19 C-0.93 19 -7.86 19 -15 19 C-15.49537372 6.7395004 -15.49537372 6.7395004 -13.09765625 3.16015625 C-8.83465068 -1.22986624 -6.00185102 -1.57943448 0 0 Z " fill="#F3F7FB" transform="translate(68,28)"/>
<path d="M0 0 C1.48831242 0.00667405 2.97660807 0.01863442 4.46484375 0.03515625 C5.22345703 0.03966797 5.98207031 0.04417969 6.76367188 0.04882812 C8.64326246 0.06064945 10.52281274 0.07858547 12.40234375 0.09765625 C12.40234375 3.06765625 12.40234375 6.03765625 12.40234375 9.09765625 C6.79234375 9.09765625 1.18234375 9.09765625 -4.59765625 9.09765625 C-4.59765625 0.12480066 -4.59765625 0.12480066 0 0 Z " fill="#F3F9FC" transform="translate(29.59765625,61.90234375)"/>
<path d="M0 0 C5.28 0 10.56 0 16 0 C16 2.97 16 5.94 16 9 C10.72 9 5.44 9 0 9 C0 6.03 0 3.06 0 0 Z " fill="#F9FAFC" transform="translate(86,62)"/>
<path d="M0 0 C5.28 0 10.56 0 16 0 C16 3.96 16 7.92 16 12 C14.68 12 13.36 12 12 12 C12 9.03 12 6.06 12 3 C9.36 3 6.72 3 4 3 C4 5.97 4 8.94 4 12 C2.68 12 1.36 12 0 12 C0 8.04 0 4.08 0 0 Z " fill="#2B7EBF" transform="translate(56,85)"/>
<path d="M0 0 C2.64 0 5.28 0 8 0 C8 2.97 8 5.94 8 9 C9.32 9.33 10.64 9.66 12 10 C6.72 10 1.44 10 -4 10 C-2.68 9.67 -1.36 9.34 0 9 C0 6.03 0 3.06 0 0 Z " fill="#F6F9FC" transform="translate(60,88)"/>
<path d="M0 0 C1.52634923 3.05269846 0.83794444 5.75845689 0.5625 9.125 C0.46066406 10.40632813 0.35882813 11.68765625 0.25390625 13.0078125 C0.17011719 13.99523438 0.08632813 14.98265625 0 16 C-2.31 16 -4.62 16 -7 16 C-7.74159972 10.06720225 -5.41121397 6.58963335 -2 2 C-1.34 1.34 -0.68 0.68 0 0 Z " fill="#E3EEF7" transform="translate(51,31)"/>
<path d="M0 0 C0.33 0 0.66 0 1 0 C1 3.96 1 7.92 1 12 C-3.62 12 -8.24 12 -13 12 C-13 19.59 -13 27.18 -13 35 C-13.33 35 -13.66 35 -14 35 C-14 26.75 -14 18.5 -14 10 C-14.66 9.67 -15.32 9.34 -16 9 C-10.72 9 -5.44 9 0 9 C0 6.03 0 3.06 0 0 Z " fill="#5AA3D4" transform="translate(42,62)"/>
<path d="M0 0 C7.85714286 7.85714286 7.85714286 7.85714286 8.1875 12.8125 C8.125625 13.534375 8.06375 14.25625 8 15 C5.69 15 3.38 15 1 15 C0.67 10.05 0.34 5.1 0 0 Z " fill="#E7EFF6" transform="translate(75,32)"/>
<path d="M0 0 C0.9075 0.00257812 1.815 0.00515625 2.75 0.0078125 C4.11125 0.00394531 4.11125 0.00394531 5.5 0 C7.75 0.1328125 7.75 0.1328125 8.75 1.1328125 C8.75 2.7828125 8.75 4.4328125 8.75 6.1328125 C4.79 6.1328125 0.83 6.1328125 -3.25 6.1328125 C-3.25 0.19184028 -3.25 0.19184028 0 0 Z " fill="#2C7FC0" transform="translate(61.25,74.8671875)"/>
<path d="M0 0 C0.9075 0.00257812 1.815 0.00515625 2.75 0.0078125 C4.11125 0.00394531 4.11125 0.00394531 5.5 0 C7.75 0.1328125 7.75 0.1328125 8.75 1.1328125 C8.75 2.7828125 8.75 4.4328125 8.75 6.1328125 C4.79 6.1328125 0.83 6.1328125 -3.25 6.1328125 C-3.25 0.19184028 -3.25 0.19184028 0 0 Z " fill="#2C7FC0" transform="translate(61.25,64.8671875)"/>
<path d="M0 0 C2.31 0 4.62 0 7 0 C7.04254356 1.99954746 7.04080783 4.00041636 7 6 C6 7 6 7 2.9375 7.0625 C1.4834375 7.0315625 1.4834375 7.0315625 0 7 C0 4.69 0 2.38 0 0 Z " fill="#3D6EB2" transform="translate(89,78)"/>
<path d="M0 0 C2.31 0 4.62 0 7 0 C7 2.31 7 4.62 7 7 C5.00045254 7.04254356 2.99958364 7.04080783 1 7 C0 6 0 6 -0.0625 2.9375 C-0.041875 1.968125 -0.02125 0.99875 0 0 Z " fill="#3990CA" transform="translate(32,78)"/>
<path d="M0 0 C1.99954746 -0.04254356 4.00041636 -0.04080783 6 0 C7 1 7 1 7.125 3.5 C7 6 7 6 6 7 C4.00041636 7.04080783 1.99954746 7.04254356 0 7 C0 4.69 0 2.38 0 0 Z " fill="#3668AE" transform="translate(89,88)"/>
<path d="M0 0 C1.4540625 0.0309375 1.4540625 0.0309375 2.9375 0.0625 C2.9375 2.3725 2.9375 4.6825 2.9375 7.0625 C0.93795254 7.10504356 -1.06291636 7.10330783 -3.0625 7.0625 C-4.0625 6.0625 -4.0625 6.0625 -4.1875 3.5625 C-4.00295237 -0.12845252 -3.76342282 0.07680455 0 0 Z " fill="#318BC8" transform="translate(36.0625,87.9375)"/>
</svg>
