<?xml version="1.0" encoding="UTF-8"?>
<svg version="1.1" xmlns="http://www.w3.org/2000/svg" width="128" height="128">
<path d="M0 0 C14.66593153 10.19568513 25.60840641 23.74932626 29.74780273 41.46484375 C31.86603529 54.29763126 31.44584138 68.79991362 26.125 80.75 C25.76277344 81.62269531 25.40054688 82.49539062 25.02734375 83.39453125 C17.33536706 100.36902897 3.07751411 111.05081733 -13.734375 117.91796875 C-30.02500275 122.93228047 -49.3872321 120.84818754 -64.375 113.25 C-80.79373216 104.34772371 -91.48385123 89.95575147 -96.98828125 72.1484375 C-100.09059644 59.05712927 -99.35177869 43.05030624 -93.875 30.75 C-93.51277344 29.87730469 -93.15054688 29.00460938 -92.77734375 28.10546875 C-85.8549626 12.82929883 -73.23462165 1.78063924 -57.87109375 -4.47265625 C-38.93392049 -11.50790437 -17.48941603 -10.43527048 0 0 Z " fill="#66BB6A" transform="translate(97.875,8.25)"/>
<path d="M0 0 C3.63 0 7.26 0 11 0 C11 14.52 11 29.04 11 44 C13.64 44 16.28 44 19 44 C19.09765625 50.15234375 19.09765625 50.15234375 19 52 C18 53 18 53 15.45005798 53.12025452 C13.74795921 53.1169236 13.74795921 53.1169236 12.01147461 53.11352539 C10.73022202 53.11344986 9.44896942 53.11337433 8.12889099 53.11329651 C6.72004152 53.10818909 5.31119244 53.10297309 3.90234375 53.09765625 C2.46887766 53.09579202 1.03541093 53.09436814 -0.39805603 53.09336853 C-4.17759957 53.08954372 -7.9571049 53.07971377 -11.7366333 53.06866455 C-15.59069298 53.05844963 -19.44475882 53.05387074 -23.29882812 53.04882812 C-30.86590287 53.03809146 -38.43294609 53.02101549 -46 53 C-46 50.03 -46 47.06 -46 44 C-43.36 44 -40.72 44 -38 44 C-38 39.05 -38 34.1 -38 29 C-37.67 29 -37.34 29 -37 29 C-36.67 33.62 -36.34 38.24 -36 43 C-33.69 43.33 -31.38 43.66 -29 44 C-29.12568359 42.21142578 -29.12568359 42.21142578 -29.25390625 40.38671875 C-29.35708136 38.82033292 -29.45992889 37.25392549 -29.5625 35.6875 C-29.61857422 34.90181641 -29.67464844 34.11613281 -29.73242188 33.30664062 C-29.78076172 32.54931641 -29.82910156 31.79199219 -29.87890625 31.01171875 C-29.9260376 30.31522217 -29.97316895 29.61872559 -30.02172852 28.90112305 C-30 27 -30 27 -29 24 C-26.03 24 -23.06 24 -20 24 C-20 23.01 -20 22.02 -20 21 C-16.7 21 -13.4 21 -10 21 C-10 16.05 -10 11.1 -10 6 C-6.7 6 -3.4 6 0 6 C0 4.02 0 2.04 0 0 Z " fill="#F4FAF4" transform="translate(77,49)"/>
<path d="M0 0 C0.66 0 1.32 0 2 0 C2 0.66 2 1.32 2 2 C3.98 2 5.96 2 8 2 C8.04254356 3.99954746 8.04080783 6.00041636 8 8 C7 9 7 9 4.4375 9.0625 C3.633125 9.041875 2.82875 9.02125 2 9 C2 10.32 2 11.64 2 13 C2.928125 13.2475 3.85625 13.495 4.8125 13.75 C8.24689474 15.09682147 9.37001248 15.74002497 11 19 C11.28157309 22.44927034 11.09682402 24.70952793 10 28 C19.93007536 25.17833924 29.12841792 22.00673414 37 15 C37 14.01 37 13.02 37 12 C38.98 12 40.96 12 43 12 C44.04449911 15.13349732 43.93423645 15.98968256 43 19 C42.34 19 41.68 19 41 19 C40.505 18.01 40.505 18.01 40 17 C39.06800781 17.67546875 38.13601562 18.3509375 37.17578125 19.046875 C28.64823509 25.07188187 20.58697036 29.75776583 10.03222656 31.28466797 C5.91501009 32.0063918 3.67137934 32.87455175 1.1015625 36.2578125 C0.2530667 37.53186966 -0.57231083 38.82159796 -1.375 40.125 C-2.87495616 42.45471914 -4.4064399 44.73110216 -6 47 C-6.66 47 -7.32 47 -8 47 C-7.37606349 43.23880524 -5.65226285 40.81039958 -3.4375 37.75 C-2.79683594 36.85796875 -2.15617187 35.9659375 -1.49609375 35.046875 C-0.75552734 34.03367187 -0.75552734 34.03367187 0 33 C-0.78761719 32.54109375 -1.57523438 32.0821875 -2.38671875 31.609375 C-5.15618324 29.9038154 -6.48692922 28.86687095 -8 26 C-8.53080798 21.82936589 -8.45144694 19.74166283 -6.25 16.125 C-4.03839103 14.03625819 -2.97249386 13.31848149 0 13 C0 11.68 0 10.36 0 9 C-0.804375 8.855625 -1.60875 8.71125 -2.4375 8.5625 C-5 8 -5 8 -6 7 C-6.04063832 5.33382885 -6.042721 3.66611905 -6 2 C-4.02 2 -2.04 2 0 2 C0 1.34 0 0.68 0 0 Z " fill="#EFF8EF" transform="translate(43,25)"/>
<path d="M0 0 C2.31 0 4.62 0 7 0 C7 13.53 7 27.06 7 41 C4.69 41 2.38 41 0 41 C0 27.47 0 13.94 0 0 Z " fill="#68BC6C" transform="translate(79,51)"/>
<path d="M0 0 C0.66 0 1.32 0 2 0 C2 0.66 2 1.32 2 2 C3.98 2 5.96 2 8 2 C8.04254356 3.99954746 8.04080783 6.00041636 8 8 C7 9 7 9 4.4375 9.0625 C3.633125 9.041875 2.82875 9.02125 2 9 C2 10.32 2 11.64 2 13 C2.928125 13.2475 3.85625 13.495 4.8125 13.75 C8.24689474 15.09682147 9.37001248 15.74002497 11 19 C11.1875 22.25 11.1875 22.25 11 25 C10.360625 25.103125 9.72125 25.20625 9.0625 25.3125 C8.381875 25.539375 7.70125 25.76625 7 26 C6.67 26.99 6.34 27.98 6 29 C5.01 28.67 4.02 28.34 3 28 C3.33 27.67 3.66 27.34 4 27 C4.04063832 25.33382885 4.042721 23.66611905 4 22 C2.68 21.34 1.36 20.68 0 20 C1.65 20 3.3 20 5 20 C5 19.34 5 18.68 5 18 C2.69 18 0.38 18 -2 18 C-2 19.98 -2 21.96 -2 24 C-0.68 24.33 0.64 24.66 2 25 C0.68 25 -0.64 25 -2 25 C-2 25.66 -2 26.32 -2 27 C-1.34 27 -0.68 27 0 27 C-0.33 27.99 -0.66 28.98 -1 30 C-4.73801284 26.6554622 -7.26020463 24.07288255 -8 19 C-6.25502504 15.97985103 -5.06291753 14.38383133 -1.75 13.1875 C-1.1725 13.125625 -0.595 13.06375 0 13 C0 11.68 0 10.36 0 9 C-0.804375 8.855625 -1.60875 8.71125 -2.4375 8.5625 C-5 8 -5 8 -6 7 C-6.04063832 5.33382885 -6.042721 3.66611905 -6 2 C-4.02 2 -2.04 2 0 2 C0 1.34 0 0.68 0 0 Z " fill="#E6F4E7" transform="translate(43,25)"/>
<path d="M0 0 C2.31 0 4.62 0 7 0 C7 11.88 7 23.76 7 36 C4.69 36 2.38 36 0 36 C0 24.12 0 12.24 0 0 Z " fill="#70BF74" transform="translate(69,57)"/>
<path d="M0 0 C19.8 0 39.6 0 60 0 C60 1.32 60 2.64 60 4 C40.2 4 20.4 4 0 4 C0 2.68 0 1.36 0 0 Z " fill="#66BB6A" transform="translate(33,95)"/>
<path d="M0 0 C2.97 0 5.94 0 9 0 C9 5.94 9 11.88 9 18 C3.33333333 18 -2.33333333 18 -8 18 C-8 17.67 -8 17.34 -8 17 C-5.69 17 -3.38 17 -1 17 C-1.01160156 15.85660156 -1.02320313 14.71320313 -1.03515625 13.53515625 C-1.04453288 12.04427246 -1.05363321 10.55338691 -1.0625 9.0625 C-1.07087891 8.30775391 -1.07925781 7.55300781 -1.08789062 6.77539062 C-1.09652441 4.85005687 -1.05224333 2.92464419 -1 1 C-0.67 0.67 -0.34 0.34 0 0 Z " fill="#C9E7CA" transform="translate(39,75)"/>
<path d="M0 0 C2.31 0 4.62 0 7 0 C7 6.6 7 13.2 7 20 C4.69 20 2.38 20 0 20 C0 13.4 0 6.8 0 0 Z " fill="#6FBF72" transform="translate(60,72)"/>
<path d="M0 0 C2.31 0 4.62 0 7 0 C7 5.94 7 11.88 7 18 C4.69 18 2.38 18 0 18 C0 12.06 0 6.12 0 0 Z " fill="#75C279" transform="translate(50,75)"/>
<path d="M0 0 C1.98 0 3.96 0 6 0 C6 4.62 6 9.24 6 14 C4.02 14 2.04 14 0 14 C0 9.38 0 4.76 0 0 Z " fill="#66BB6A" transform="translate(41,78)"/>
<path d="M0 0 C0.66 0.33 1.32 0.66 2 1 C1.67 1.33 1.34 1.66 1 2 C4.3 2.33 7.6 2.66 11 3 C11 3.33 11 3.66 11 4 C7.37 4 3.74 4 0 4 C0 5.98 0 7.96 0 10 C-3.3 10 -6.6 10 -10 10 C-9.07134386 5.93712938 -7.38267431 4.31270784 -4 2.125 C-1.875 0.8203125 -1.875 0.8203125 0 0 Z " fill="#83C886" transform="translate(77,45)"/>
<path d="M0 0 C0 0.66 0 1.32 0 2 C-0.66 2 -1.32 2 -2 2 C-2 3.98 -2 5.96 -2 8 C-0.68 8.33 0.64 8.66 2 9 C0.68 9 -0.64 9 -2 9 C-2 9.66 -2 10.32 -2 11 C-1.34 11 -0.68 11 0 11 C-0.33 11.99 -0.66 12.98 -1 14 C-3.5625 11.9375 -3.5625 11.9375 -6 9 C-6 5.3125 -6 5.3125 -5 2 C-2 0 -2 0 0 0 Z " fill="#77C37B" transform="translate(43,41)"/>
<path d="M0 0 C3.875 1.875 3.875 1.875 5 3 C5.35897436 9.46153846 5.35897436 9.46153846 3 13 C2.01 12.67 1.02 12.34 0 12 C0.33 11.67 0.66 11.34 1 11 C1.04063832 9.33382885 1.042721 7.66611905 1 6 C-0.32 5.34 -1.64 4.68 -3 4 C-1.35 4 0.3 4 2 4 C2 3.34 2 2.68 2 2 C1.34 2 0.68 2 0 2 C0 1.34 0 0.68 0 0 Z " fill="#71C075" transform="translate(46,41)"/>
<path d="M0 0 C0.66 0 1.32 0 2 0 C1.38271885 3.38361519 0.13020282 5.52002561 -1.9375 8.25 C-2.46214844 8.95640625 -2.98679687 9.6628125 -3.52734375 10.390625 C-4.01332031 10.92171875 -4.49929687 11.4528125 -5 12 C-5.66 12 -6.32 12 -7 12 C-6.38271885 8.61638481 -5.13020282 6.47997439 -3.0625 3.75 C-2.53785156 3.04359375 -2.01320313 2.3371875 -1.47265625 1.609375 C-0.74369141 0.81273437 -0.74369141 0.81273437 0 0 Z " fill="#EAF5EA" transform="translate(42,60)"/>
<path d="M0 0 C-0.99844874 2.62092794 -1.55845329 3.77181261 -4.09375 5.08203125 C-4.8878125 5.32308594 -5.681875 5.56414063 -6.5 5.8125 C-7.2940625 6.06644531 -8.088125 6.32039063 -8.90625 6.58203125 C-11 7 -11 7 -13 6 C-10.78511966 2.67767949 -10.13888343 2.4289756 -6.5 1.3125 C-5.7059375 1.06113281 -4.911875 0.80976562 -4.09375 0.55078125 C-2 0 -2 0 0 0 Z " fill="#E7F4E8" transform="translate(70,48)"/>
<path d="M0 0 C0.33 0.66 0.66 1.32 1 2 C1.99 2 2.98 2 4 2 C4 2.66 4 3.32 4 4 C2.35 4 0.7 4 -1 4 C-0.67 4.99 -0.34 5.98 0 7 C-0.99 7 -1.98 7 -3 7 C-3 5.35 -3 3.7 -3 2 C-2.01 2 -1.02 2 0 2 C0 1.34 0 0.68 0 0 Z " fill="#FBFDFB" transform="translate(44,41)"/>
<path d="M0 0 C0.33 0 0.66 0 1 0 C1.309375 1.093125 1.61875 2.18625 1.9375 3.3125 C2.58337897 5.55407994 3.2623117 7.7869351 4 10 C2.0625 9.4375 2.0625 9.4375 0 8 C-0.8125 4.4375 -0.8125 4.4375 -1 1 C-0.67 0.67 -0.34 0.34 0 0 Z " fill="#F9FCF9" transform="translate(36,45)"/>
<path d="M0 0 C0.66 0.33 1.32 0.66 2 1 C2 1.66 2 2.32 2 3 C0.37373596 4.38232443 -1.2925002 5.71937515 -3 7 C-3.33 6.34 -3.66 5.68 -4 5 C-2.68 3.35 -1.36 1.7 0 0 Z " fill="#EFF8F0" transform="translate(39,39)"/>
</svg>
