<?xml version="1.0" encoding="UTF-8"?>
<svg version="1.1" xmlns="http://www.w3.org/2000/svg" width="128" height="128">
<path d="M0 0 C15.56921414 10.82364286 26.2305434 25.03192514 30.125 43.75 C30.55819557 47.6570399 30.65026973 51.50853678 30.625 55.4375 C30.61927979 56.48188232 30.61355957 57.52626465 30.60766602 58.60229492 C30.18363377 77.14692382 22.5102429 91.91333263 9.125 104.75 C-3.53915933 115.12813696 -17.39531506 120.35202081 -33.75 120.1875 C-35.3270874 120.17722778 -35.3270874 120.17722778 -36.93603516 120.16674805 C-44.91290106 120.00207948 -51.52815505 119.02122293 -58.875 115.75 C-59.74769531 115.38777344 -60.62039062 115.02554688 -61.51953125 114.65234375 C-76.79570117 107.7299626 -87.84436076 95.10962165 -94.09765625 79.74609375 C-99.75563856 64.51618437 -100.75500398 45.7795325 -93.875 30.75 C-93.1634375 29.14511719 -93.1634375 29.14511719 -92.4375 27.5078125 C-84.89523746 12.09693952 -72.63455422 0.5722872 -56.375 -5.1875 C-37.73814183 -11.3787986 -16.99837717 -10.14228624 0 0 Z " fill="#AC2715" transform="translate(97.875,8.25)"/>
<path d="M0 0 C7.3889971 4.32077439 7.3889971 4.32077439 8.70721436 8.76953125 C9.51664263 14.43950553 9.13038949 20.1237684 8.81713867 25.8203125 C8.76189972 27.5662521 8.71172036 29.31235954 8.66674805 31.05859375 C8.54611997 35.31667441 8.35674282 39.56663597 8.12963867 43.8203125 C5.81963867 43.8203125 3.50963867 43.8203125 1.12963867 43.8203125 C1.12963867 37.5503125 1.12963867 31.2803125 1.12963867 24.8203125 C-3.49036133 24.8203125 -8.11036133 24.8203125 -12.87036133 24.8203125 C-12.87036133 31.0903125 -12.87036133 37.3603125 -12.87036133 43.8203125 C-15.18036133 43.8203125 -17.49036133 43.8203125 -19.87036133 43.8203125 C-20.1690906 38.71625477 -20.38561619 33.61736252 -20.52954102 28.5065918 C-20.58956136 26.77261705 -20.67122028 25.03924154 -20.77563477 23.30737305 C-21.59075289 9.43038647 -21.59075289 9.43038647 -18.734375 5.09686279 C-12.9805781 -1.05836758 -7.86751258 -3.23346269 0 0 Z " fill="#FBF6F6" transform="translate(69.870361328125,58.1796875)"/>
<path d="M0 0 C1.32 0 2.64 0 4 0 C4 1.32 4 2.64 4 4 C5.65 4 7.3 4 9 4 C8.67 5.32 8.34 6.64 8 8 C6.68 8 5.36 8 4 8 C4.73358496 12.78026274 4.73358496 12.78026274 7.69140625 16.34375 C8.32949219 16.7665625 8.96757813 17.189375 9.625 17.625 C11.51171875 19.046875 11.51171875 19.046875 13 21 C13.61458785 25.39141407 13.41173926 29.59504347 13 34 C12.11248047 33.33291016 12.11248047 33.33291016 11.20703125 32.65234375 C10.41683594 32.08644531 9.62664062 31.52054688 8.8125 30.9375 C8.03519531 30.36902344 7.25789063 29.80054687 6.45703125 29.21484375 C4.07706413 27.78451561 4.07706413 27.78451561 1.46875 28.15625 C-1.07911686 29.02703994 -3.0696418 30.07993272 -5.3125 31.5625 C-6.35857422 32.24505859 -6.35857422 32.24505859 -7.42578125 32.94140625 C-7.94527344 33.29074219 -8.46476562 33.64007813 -9 34 C-10.23782052 22.56735216 -10.23782052 22.56735216 -7.25390625 18.7890625 C-5.81424357 17.65478282 -4.34530178 16.55654006 -2.84765625 15.5 C-0.64756397 14.00478911 -0.64756397 14.00478911 0 10.5625 C0 9.716875 0 8.87125 0 8 C-1.65 7.67 -3.3 7.34 -5 7 C-5 6.01 -5 5.02 -5 4 C-3.35 4 -1.7 4 0 4 C0 2.68 0 1.36 0 0 Z " fill="#FAF5F4" transform="translate(62,26)"/>
<path d="M0 0 C2.98689442 1.19475777 5.87189343 2.36593257 8.76953125 3.7265625 C9.36612549 4.00580566 9.96271973 4.28504883 10.57739258 4.57275391 C11.31497803 4.91999512 12.05256348 5.26723633 12.8125 5.625 C15.184375 6.73875 17.55625 7.8525 20 9 C20 16.26 20 23.52 20 31 C18.68 31.33 17.36 31.66 16 32 C16 26.72 16 21.44 16 16 C12.04 16 8.08 16 4 16 C4 21.28 4 26.56 4 32 C2.68 32 1.36 32 0 32 C0 21.44 0 10.88 0 0 Z " fill="#FAF4F3" transform="translate(80,71)"/>
<path d="M0 0 C0.66 0 1.32 0 2 0 C2 10.56 2 21.12 2 32 C0.68 32 -0.64 32 -2 32 C-2 26.72 -2 21.44 -2 16 C-5.96 16 -9.92 16 -14 16 C-14 21.28 -14 26.56 -14 32 C-15.32 31.67 -16.64 31.34 -18 31 C-18 23.74 -18 16.48 -18 9 C-9.5625 5.0625 -9.5625 5.0625 -6.90063477 3.82446289 C-6.21283936 3.5021167 -5.52504395 3.17977051 -4.81640625 2.84765625 C-4.10943604 2.51773682 -3.40246582 2.18781738 -2.67407227 1.84790039 C-1.0108841 1.11465443 -1.0108841 1.11465443 0 0 Z " fill="#FAF4F3" transform="translate(46,71)"/>
<path d="M0 0 C2.64 0 5.28 0 8 0 C8 5.61 8 11.22 8 17 C5.36 17 2.72 17 0 17 C0 11.39 0 5.78 0 0 Z " fill="#FEFEFE" transform="translate(60,85)"/>
<path d="M0 0 C2.64 0 5.28 0 8 0 C8 4.62 8 9.24 8 14 C5.36 14 2.72 14 0 14 C0 9.38 0 4.76 0 0 Z " fill="#F0DBD8" transform="translate(86,89)"/>
<path d="M0 0 C2.64 0 5.28 0 8 0 C8 4.62 8 9.24 8 14 C5.36 14 2.72 14 0 14 C0 9.38 0 4.76 0 0 Z " fill="#F0DBD8" transform="translate(34,89)"/>
<path d="M0 0 C4.62 0 9.24 0 14 0 C14 2.31 14 4.62 14 7 C13 8 13 8 10.3125 8.1328125 C9.219375 8.13023438 8.12625 8.12765625 7 8.125 C5.906875 8.12757812 4.81375 8.13015625 3.6875 8.1328125 C1 8 1 8 0 7 C0 4.69 0 2.38 0 0 Z " fill="#B74535" transform="translate(57,69)"/>
<path d="M0 0 C3.48182638 1.56682187 6.68810514 3.52379466 9.5 6.125 C9.5 6.785 9.5 7.445 9.5 8.125 C6.92776477 7.66567228 5.59495764 7.2046419 3.5625 5.5 C1.58352584 3.89448692 1.58352584 3.89448692 -0.875 4.1875 C-4.14380227 5.35492938 -6.69399459 7.10206587 -9.5 9.125 C-9.5 5.125 -9.5 5.125 -8.14453125 3.60546875 C-3.2673549 0.16336775 -3.2673549 0.16336775 0 0 Z " fill="#B84737" transform="translate(64.5,52.875)"/>
<path d="M0 0 C-4.455 3.465 -4.455 3.465 -9 7 C-9.66 6.67 -10.32 6.34 -11 6 C-9.17559425 0.52678274 -5.4446504 -1.3611626 0 0 Z " fill="#B43C2C" transform="translate(65,55)"/>
<path d="M0 0 C0 0.99 0 1.98 0 3 C-3.96 3 -7.92 3 -12 3 C-12 2.34 -12 1.68 -12 1 C-10.37512529 0.83211627 -8.75009558 0.66573213 -7.125 0.5 C-6.22007813 0.4071875 -5.31515625 0.314375 -4.3828125 0.21875 C-2 0 -2 0 0 0 Z " fill="#BB4F40" transform="translate(70,74)"/>
<path d="M0 0 C2.64 0 5.28 0 8 0 C8 0.99 8 1.98 8 3 C5.36 3 2.72 3 0 3 C0 2.01 0 1.02 0 0 Z " fill="#FCF9F8" transform="translate(60,71)"/>
</svg>
