<?xml version="1.0" encoding="UTF-8"?>
<svg version="1.1" xmlns="http://www.w3.org/2000/svg" width="128" height="128">
<path d="M0 0 C14.66593153 10.19568513 25.60840641 23.74932626 29.74780273 41.46484375 C31.86603529 54.29763126 31.44584138 68.79991362 26.125 80.75 C25.76277344 81.62269531 25.40054688 82.49539062 25.02734375 83.39453125 C17.33536706 100.36902897 3.07751411 111.05081733 -13.734375 117.91796875 C-30.02500275 122.93228047 -49.3872321 120.84818754 -64.375 113.25 C-80.79373216 104.34772371 -91.48385123 89.95575147 -96.98828125 72.1484375 C-100.09059644 59.05712927 -99.35177869 43.05030624 -93.875 30.75 C-93.51277344 29.87730469 -93.15054688 29.00460938 -92.77734375 28.10546875 C-85.8549626 12.82929883 -73.23462165 1.78063924 -57.87109375 -4.47265625 C-38.93392049 -11.50790437 -17.48941603 -10.43527048 0 0 Z " fill="#00C8C8" transform="translate(97.875,8.25)"/>
<path d="M0 0 C13.86 0 27.72 0 42 0 C42 6.27 42 12.54 42 19 C48.93 19 55.86 19 63 19 C63 39.13 63 59.26 63 80 C35.28 80 7.56 80 -21 80 C-21 59.87 -21 39.74 -21 19 C-14.07 19 -7.14 19 0 19 C0 12.73 0 6.46 0 0 Z " fill="#E4ECF4" transform="translate(43,22)"/>
<path d="M0 0 C2.31 1.98 4.62 3.96 7 6 C7.71663818 6.60585938 8.43327637 7.21171875 9.17163086 7.8359375 C21.10864646 18.08113101 21.10864646 18.08113101 23.109375 24.6328125 C23.49802088 42.00528328 14.51241955 57.8334848 3.01171875 70.125 C-12.23277771 84.82402484 -30.012719 87.49174445 -50.3762207 87.2746582 C-57.01882159 86.57930825 -61.14829007 84.59683484 -65.71484375 79.80859375 C-66.21544815 79.30328629 -66.71605255 78.79797882 -67.23182678 78.27735901 C-68.81251382 76.6754792 -70.3746472 75.05676304 -71.9375 73.4375 C-73.0125645 72.34591349 -74.08872679 71.25540699 -75.16601562 70.16601562 C-83 62.19602377 -83 62.19602377 -83 61 C-55.61 61 -28.22 61 0 61 C0 40.87 0 20.74 0 0 Z " fill="#1CADB5" transform="translate(106,41)"/>
<path d="M0 0 C6.93 0 13.86 0 21 0 C21 20.13 21 40.26 21 61 C-6.72 61 -34.44 61 -63 61 C-63 60.67 -63 60.34 -63 60 C-53.1 60 -43.2 60 -33 60 C-33 54.06 -33 48.12 -33 42 C-25.08 42 -17.16 42 -9 42 C-9 47.94 -9 53.88 -9 60 C-6.03 60 -3.06 60 0 60 C0 40.2 0 20.4 0 0 Z " fill="#C0CBDA" transform="translate(85,41)"/>
<path d="M0 0 C6.6 0 13.2 0 20 0 C21.10316188 15.68748318 21.12043642 31.3306239 21.06866455 47.04968262 C21.05826703 50.55004256 21.05383245 54.05041018 21.04882812 57.55078125 C21.03823829 64.36720573 21.02126779 71.18360065 21 78 C18.03 78 15.06 78 12 78 C12 72.06 12 66.12 12 60 C8.04 60 4.08 60 0 60 C0 57.36 0 54.72 0 52 C-3.96 52 -7.92 52 -12 52 C-12 49.36 -12 46.72 -12 44 C-8.04 44 -4.08 44 0 44 C0 42.35 0 40.7 0 39 C-3.96 39 -7.92 39 -12 39 C-12 36.69 -12 34.38 -12 32 C-8.04 32 -4.08 32 0 32 C0 30.35 0 28.7 0 27 C-3.96 27 -7.92 27 -12 27 C-12 24.36 -12 21.72 -12 19 C-8.04 19 -4.08 19 0 19 C0 17.35 0 15.7 0 14 C-3.96 14 -7.92 14 -12 14 C-12 11.69 -12 9.38 -12 7 C-8.04 7 -4.08 7 0 7 C0 4.69 0 2.38 0 0 Z " fill="#E7EBF3" transform="translate(64,23)"/>
<path d="M0 0 C6.6 0 13.2 0 20 0 C20 2.31 20 4.62 20 7 C16.04 7 12.08 7 8 7 C8 9.31 8 11.62 8 14 C11.96 14 15.92 14 20 14 C20 15.65 20 17.3 20 19 C16.04 19 12.08 19 8 19 C8 21.64 8 24.28 8 27 C11.96 27 15.92 27 20 27 C20 28.65 20 30.3 20 32 C16.04 32 12.08 32 8 32 C8 34.31 8 36.62 8 39 C11.96 39 15.92 39 20 39 C20 40.65 20 42.3 20 44 C16.04 44 12.08 44 8 44 C8 46.64 8 49.28 8 52 C11.96 52 15.92 52 20 52 C20 54.64 20 57.28 20 60 C16.04 60 12.08 60 8 60 C8 65.94 8 71.88 8 78 C5.36 78 2.72 78 0 78 C0 52.26 0 26.52 0 0 Z " fill="#FEFEFE" transform="translate(44,23)"/>
<path d="M0 0 C3.96 0 7.92 0 12 0 C12 5.94 12 11.88 12 18 C8.04 18 4.08 18 0 18 C0 12.06 0 6.12 0 0 Z " fill="#CDD2E1" transform="translate(52,83)"/>
<path d="M0 0 C7.92 0 15.84 0 24 0 C24 2.64 24 5.28 24 8 C16.08 8 8.16 8 0 8 C0 5.36 0 2.72 0 0 Z " fill="#B1B6CA" transform="translate(52,67)"/>
<path d="M0 0 C7.92 0 15.84 0 24 0 C24 2.64 24 5.28 24 8 C16.08 8 8.16 8 0 8 C0 5.36 0 2.72 0 0 Z " fill="#B1B6C9" transform="translate(52,42)"/>
<path d="M0 0 C7.92 0 15.84 0 24 0 C24 2.31 24 4.62 24 7 C16.08 7 8.16 7 0 7 C0 4.69 0 2.38 0 0 Z " fill="#AFB4C8" transform="translate(52,55)"/>
<path d="M0 0 C7.92 0 15.84 0 24 0 C24 2.31 24 4.62 24 7 C16.08 7 8.16 7 0 7 C0 4.69 0 2.38 0 0 Z " fill="#AFB4C8" transform="translate(52,30)"/>
<path d="M0 0 C6.01826738 4.97161218 11.66337352 10.29829243 17 16 C17 16.33 17 16.66 17 17 C11.39 17 5.78 17 0 17 C0 11.39 0 5.78 0 0 Z " fill="#1DADB5" transform="translate(85,24)"/>
<path d="M0 0 C3.96 0 7.92 0 12 0 C12 2.64 12 5.28 12 8 C8.04 8 4.08 8 0 8 C0 5.36 0 2.72 0 0 Z " fill="#CFD4E2" transform="translate(52,67)"/>
<path d="M0 0 C3.96 0 7.92 0 12 0 C12 2.64 12 5.28 12 8 C8.04 8 4.08 8 0 8 C0 5.36 0 2.72 0 0 Z " fill="#CFD4E2" transform="translate(52,42)"/>
<path d="M0 0 C3.96 0 7.92 0 12 0 C12 2.31 12 4.62 12 7 C8.04 7 4.08 7 0 7 C0 4.69 0 2.38 0 0 Z " fill="#CCD1E0" transform="translate(52,55)"/>
<path d="M0 0 C3.96 0 7.92 0 12 0 C12 2.31 12 4.62 12 7 C8.04 7 4.08 7 0 7 C0 4.69 0 2.38 0 0 Z " fill="#CCD1E0" transform="translate(52,30)"/>
<path d="M0 0 C2.64 0 5.28 0 8 0 C8 2.64 8 5.28 8 8 C5.36 8 2.72 8 0 8 C0 5.36 0 2.72 0 0 Z " fill="#848B9C" transform="translate(91,88)"/>
<path d="M0 0 C2.64 0 5.28 0 8 0 C8 2.64 8 5.28 8 8 C5.36 8 2.72 8 0 8 C0 5.36 0 2.72 0 0 Z " fill="#B3B8CB" transform="translate(29,88)"/>
<path d="M0 0 C2.64 0 5.28 0 8 0 C8 2.64 8 5.28 8 8 C5.36 8 2.72 8 0 8 C0 5.36 0 2.72 0 0 Z " fill="#B4B8CB" transform="translate(29,75)"/>
<path d="M0 0 C2.64 0 5.28 0 8 0 C8 2.64 8 5.28 8 8 C5.36 8 2.72 8 0 8 C0 5.36 0 2.72 0 0 Z " fill="#B4B8CB" transform="translate(29,48)"/>
<path d="M0 0 C2.64 0 5.28 0 8 0 C8 2.31 8 4.62 8 7 C5.36 7 2.72 7 0 7 C0 4.69 0 2.38 0 0 Z " fill="#808797" transform="translate(91,75)"/>
<path d="M0 0 C2.64 0 5.28 0 8 0 C8 2.31 8 4.62 8 7 C5.36 7 2.72 7 0 7 C0 4.69 0 2.38 0 0 Z " fill="#808797" transform="translate(91,62)"/>
<path d="M0 0 C2.64 0 5.28 0 8 0 C8 2.31 8 4.62 8 7 C5.36 7 2.72 7 0 7 C0 4.69 0 2.38 0 0 Z " fill="#B0B5C9" transform="translate(29,62)"/>
<path d="M0 0 C2.64 0 5.28 0 8 0 C8 2.31 8 4.62 8 7 C5.36 7 2.72 7 0 7 C0 4.69 0 2.38 0 0 Z " fill="#808797" transform="translate(91,49)"/>
</svg>
