<?xml version="1.0" encoding="UTF-8"?>
<svg version="1.1" xmlns="http://www.w3.org/2000/svg" width="128" height="128">
<path d="M0 0 C14.68250132 10.20720437 25.60416255 23.76154778 29.75219727 41.49169922 C32.82327568 60.09515389 29.5502972 78.09311442 19.125 93.75 C9.08186797 107.39350011 -6.04542745 117.11068198 -22.875 119.75 C-43.02784804 121.34331318 -61.10708318 118.16091923 -76.84155273 104.81835938 C-87.86547894 94.89138491 -96.85569494 80.11343833 -98.09594727 65.07006836 C-98.56990818 53.14054249 -98.80334888 41.81858684 -93.875 30.75 C-93.51277344 29.87730469 -93.15054688 29.00460938 -92.77734375 28.10546875 C-85.8549626 12.82929883 -73.23462165 1.78063924 -57.87109375 -4.47265625 C-38.93392049 -11.50790437 -17.48941603 -10.43527048 0 0 Z " fill="#F8A71A" transform="translate(97.875,8.25)"/>
<path d="M0 0 C2.10867096 0.9800865 3.40476005 2.03244746 5.06640625 3.65234375 C12.37464211 10.07614342 18.81833884 12.52707619 28.5703125 11.98046875 C29.35277344 11.9546875 30.13523438 11.92890625 30.94140625 11.90234375 C33.41288231 14.37381981 32.18282802 20.90266765 32.19140625 24.21484375 C32.18574497 39.66107398 29.800988 53.34968155 18.9765625 65.078125 C12.84567755 70.57356314 5.86450856 74.41701772 -2.45703125 74.30859375 C-9.5242218 73.20500844 -16.56410076 68.49371775 -21.36328125 63.265625 C-32.7047459 47.45551875 -33.39381032 31.74896439 -33.05859375 12.90234375 C-30.05859375 11.90234375 -30.05859375 11.90234375 -26.55859375 12.08984375 C-18.48687865 12.13427521 -11.9301687 9.04540592 -6.12109375 3.58984375 C-5.43144531 2.87183594 -4.74179687 2.15382813 -4.03125 1.4140625 C-2.05859375 -0.09765625 -2.05859375 -0.09765625 0 0 Z " fill="#F8A71B" transform="translate(65.05859375,28.09765625)"/>
<path d="M0 0 C2.10867096 0.9800865 3.40476005 2.03244746 5.06640625 3.65234375 C12.37464211 10.07614342 18.81833884 12.52707619 28.5703125 11.98046875 C29.35277344 11.9546875 30.13523438 11.92890625 30.94140625 11.90234375 C33.41288231 14.37381981 32.18282802 20.90266765 32.19140625 24.21484375 C32.18574497 39.66107398 29.800988 53.34968155 18.9765625 65.078125 C12.84567755 70.57356314 5.86450856 74.41701772 -2.45703125 74.30859375 C-9.5242218 73.20500844 -16.56410076 68.49371775 -21.36328125 63.265625 C-32.7047459 47.45551875 -33.39381032 31.74896439 -33.05859375 12.90234375 C-30.05859375 11.90234375 -30.05859375 11.90234375 -26.55859375 12.08984375 C-18.48687865 12.13427521 -11.9301687 9.04540592 -6.12109375 3.58984375 C-5.43144531 2.87183594 -4.74179687 2.15382813 -4.03125 1.4140625 C-2.05859375 -0.09765625 -2.05859375 -0.09765625 0 0 Z M-1.05859375 5.90234375 C-1.54328125 6.2890625 -2.02796875 6.67578125 -2.52734375 7.07421875 C-10.76635313 13.47529527 -17.68041686 16.45245139 -28.05859375 17.90234375 C-28.75965934 32.37545335 -28.58242939 46.58764163 -18.65234375 58.265625 C-13.79328941 63.25568326 -8.75329597 67.60905214 -2.05859375 69.90234375 C0.5033047 70.05708987 0.5033047 70.05708987 2.94140625 68.90234375 C3.83279297 68.56009766 3.83279297 68.56009766 4.7421875 68.2109375 C14.15649946 64.13444902 19.32730803 57.04752891 23.71484375 48.02734375 C26.5494995 40.80529087 27.21970576 34.57911147 27.06640625 26.90234375 C27.05738281 26.03222656 27.04835937 25.16210938 27.0390625 24.265625 C27.01575244 22.14440955 26.97989204 20.02333813 26.94140625 17.90234375 C26.26335937 17.81597656 25.5853125 17.72960938 24.88671875 17.640625 C14.72927032 16.10715979 7.05022419 12.07209653 -1.05859375 5.90234375 Z " fill="#FAF5EC" transform="translate(65.05859375,28.09765625)"/>
</svg>
