<?xml version="1.0" encoding="UTF-8"?>
<svg version="1.1" xmlns="http://www.w3.org/2000/svg" width="128" height="128">
<path d="M0 0 C0.89162842 0.37125 0.89162842 0.37125 1.80126953 0.75 C19.98742322 8.48459847 30.65878444 20.14562913 38.95703125 38.1015625 C43.77060527 51.47861091 44.66432909 69.81512587 39 83 C38.62875 83.89162842 38.62875 83.89162842 38.25 84.80126953 C30.51540153 102.98742322 18.85437087 113.65878444 0.8984375 121.95703125 C-12.47861091 126.77060527 -30.81512587 127.66432909 -44 122 C-44.59441895 121.7525 -45.18883789 121.505 -45.80126953 121.25 C-63.98742322 113.51540153 -74.65878444 101.85437087 -82.95703125 83.8984375 C-87.77060527 70.52138909 -88.66432909 52.18487413 -83 39 C-82.7525 38.40558105 -82.505 37.81116211 -82.25 37.19873047 C-74.51540153 19.01257678 -62.85437087 8.34121556 -44.8984375 0.04296875 C-31.52138909 -4.77060527 -13.18487413 -5.66432909 0 0 Z " fill="#EAEAEA" transform="translate(86,3)"/>
<path d="M0 0 C0.886875 -0.00257812 1.77375 -0.00515625 2.6875 -0.0078125 C3.615625 -0.00007813 4.54375 0.00765625 5.5 0.015625 C6.428125 0.00789063 7.35625 0.00015625 8.3125 -0.0078125 C9.6428125 -0.00394531 9.6428125 -0.00394531 11 0 C11.8146875 0.00225586 12.629375 0.00451172 13.46875 0.00683594 C15.5 0.265625 15.5 0.265625 17.5 2.265625 C17.72705078 4.14501953 17.72705078 4.14501953 17.6953125 6.3984375 C17.68886719 7.20410156 17.68242188 8.00976562 17.67578125 8.83984375 C17.65902344 9.68160156 17.64226562 10.52335937 17.625 11.390625 C17.61597656 12.24011719 17.60695312 13.08960938 17.59765625 13.96484375 C17.57405647 16.06522384 17.53818483 18.16545944 17.5 20.265625 C18.77617188 20.24242188 20.05234375 20.21921875 21.3671875 20.1953125 C23.0364525 20.17655671 24.7057238 20.15835631 26.375 20.140625 C27.21675781 20.12386719 28.05851562 20.10710938 28.92578125 20.08984375 C30.13427734 20.08017578 30.13427734 20.08017578 31.3671875 20.0703125 C32.11081543 20.05983887 32.85444336 20.04936523 33.62060547 20.03857422 C35.5 20.265625 35.5 20.265625 37.5 22.265625 C37.75878906 24.296875 37.75878906 24.296875 37.765625 26.765625 C37.76949219 28.0959375 37.76949219 28.0959375 37.7734375 29.453125 C37.76570313 30.38125 37.75796875 31.309375 37.75 32.265625 C37.76160156 33.6578125 37.76160156 33.6578125 37.7734375 35.078125 C37.77085938 35.965 37.76828125 36.851875 37.765625 37.765625 C37.76336914 38.5803125 37.76111328 39.395 37.75878906 40.234375 C37.5 42.265625 37.5 42.265625 35.5 44.265625 C33.62060547 44.49267578 33.62060547 44.49267578 31.3671875 44.4609375 C30.56152344 44.45449219 29.75585938 44.44804688 28.92578125 44.44140625 C27.66314453 44.41626953 27.66314453 44.41626953 26.375 44.390625 C25.10076172 44.37708984 25.10076172 44.37708984 23.80078125 44.36328125 C21.70040116 44.33968147 19.60016556 44.30380983 17.5 44.265625 C17.52320313 45.54179688 17.54640625 46.81796875 17.5703125 48.1328125 C17.58906829 49.8020775 17.60726869 51.4713488 17.625 53.140625 C17.64175781 53.98238281 17.65851563 54.82414062 17.67578125 55.69140625 C17.68544922 56.89990234 17.68544922 56.89990234 17.6953125 58.1328125 C17.71102295 59.24825439 17.71102295 59.24825439 17.72705078 60.38623047 C17.5 62.265625 17.5 62.265625 15.5 64.265625 C13.46875 64.52441406 13.46875 64.52441406 11 64.53125 C10.113125 64.53382812 9.22625 64.53640625 8.3125 64.5390625 C7.384375 64.53132813 6.45625 64.52359375 5.5 64.515625 C4.571875 64.52335937 3.64375 64.53109375 2.6875 64.5390625 C1.3571875 64.53519531 1.3571875 64.53519531 0 64.53125 C-0.8146875 64.52899414 -1.629375 64.52673828 -2.46875 64.52441406 C-4.5 64.265625 -4.5 64.265625 -6.5 62.265625 C-6.72705078 60.38623047 -6.72705078 60.38623047 -6.6953125 58.1328125 C-6.68886719 57.32714844 -6.68242188 56.52148438 -6.67578125 55.69140625 C-6.65902344 54.84964844 -6.64226563 54.00789063 -6.625 53.140625 C-6.61597656 52.29113281 -6.60695313 51.44164062 -6.59765625 50.56640625 C-6.57405647 48.46602616 -6.53818483 46.36579056 -6.5 44.265625 C-7.77617188 44.28882813 -9.05234375 44.31203125 -10.3671875 44.3359375 C-12.0364525 44.35469329 -13.7057238 44.37289369 -15.375 44.390625 C-16.63763672 44.41576172 -16.63763672 44.41576172 -17.92578125 44.44140625 C-18.73144531 44.44785156 -19.53710938 44.45429687 -20.3671875 44.4609375 C-21.11081543 44.47141113 -21.85444336 44.48188477 -22.62060547 44.49267578 C-24.5 44.265625 -24.5 44.265625 -26.5 42.265625 C-26.75878906 40.234375 -26.75878906 40.234375 -26.765625 37.765625 C-26.76820312 36.87875 -26.77078125 35.991875 -26.7734375 35.078125 C-26.76183594 33.6859375 -26.76183594 33.6859375 -26.75 32.265625 C-26.75773437 31.3375 -26.76546875 30.409375 -26.7734375 29.453125 C-26.77085938 28.56625 -26.76828125 27.679375 -26.765625 26.765625 C-26.76336914 25.9509375 -26.76111328 25.13625 -26.75878906 24.296875 C-26.5 22.265625 -26.5 22.265625 -24.5 20.265625 C-22.62060547 20.03857422 -22.62060547 20.03857422 -20.3671875 20.0703125 C-19.56152344 20.07675781 -18.75585938 20.08320312 -17.92578125 20.08984375 C-16.66314453 20.11498047 -16.66314453 20.11498047 -15.375 20.140625 C-14.10076172 20.15416016 -14.10076172 20.15416016 -12.80078125 20.16796875 C-10.70040116 20.19156853 -8.60016556 20.22744017 -6.5 20.265625 C-6.52320312 18.98945312 -6.54640625 17.71328125 -6.5703125 16.3984375 C-6.58906829 14.7291725 -6.60726869 13.0599012 -6.625 11.390625 C-6.64175781 10.54886719 -6.65851562 9.70710938 -6.67578125 8.83984375 C-6.68222656 8.03417969 -6.68867187 7.22851562 -6.6953125 6.3984375 C-6.70578613 5.65480957 -6.71625977 4.91118164 -6.72705078 4.14501953 C-6.22393672 -0.01946653 -3.5239729 0.00975784 0 0 Z " fill="#E2574C" transform="translate(58.5,31.734375)"/>
</svg>
