<?xml version="1.0" encoding="UTF-8"?>
<svg version="1.1" xmlns="http://www.w3.org/2000/svg" width="128" height="128">
<path d="M0 0 C11.41875818 10.60824089 17.91451787 24.901905 19.0703125 40.3125 C19.59030938 56.95240024 14.64283864 70.93759432 4 83.6875 C-7.59599231 95.99572216 -22.71086975 101.7130062 -39.375 102.25 C-55.26847073 101.97763205 -69.43426568 96.18679026 -81.0234375 85.29296875 C-93.06659035 71.83681061 -98.17204492 55.98907338 -97.36230469 38.02246094 C-96.16056759 23.25922144 -88.8736563 9.94054468 -78.1875 -0.125 C-54.91014619 -19.6212608 -23.27270546 -18.42613025 0 0 Z M-77.1875 19.875 C-77.1875 22.515 -77.1875 25.155 -77.1875 27.875 C-72.8975 27.875 -68.6075 27.875 -64.1875 27.875 C-64.1875 30.185 -64.1875 32.495 -64.1875 34.875 C-63.1975 35.205 -62.2075 35.535 -61.1875 35.875 C-60.20474412 38.82326763 -60.05335275 40.80152504 -60.0625 43.875 C-60.05863281 45.174375 -60.05863281 45.174375 -60.0546875 46.5 C-60.1875 48.875 -60.1875 48.875 -61.1875 51.875 C-62.6725 52.37 -62.6725 52.37 -64.1875 52.875 C-64.1875 55.185 -64.1875 57.495 -64.1875 59.875 C-68.4775 59.875 -72.7675 59.875 -77.1875 59.875 C-77.1875 62.515 -77.1875 65.155 -77.1875 67.875 C-65.3075 67.875 -53.4275 67.875 -41.1875 67.875 C-41.1875 63.915 -41.1875 59.955 -41.1875 55.875 C-42.30125 55.2975 -43.415 54.72 -44.5625 54.125 C-46.67424863 52.89634625 -48.06663752 52.02213693 -49.625 50.125 C-50.78932876 45.46768495 -50.82779287 41.47573218 -49.0625 37.0625 C-46.75543753 34.37092712 -44.42788731 33.24316353 -41.1875 31.875 C-41.1875 27.915 -41.1875 23.955 -41.1875 19.875 C-53.0675 19.875 -64.9475 19.875 -77.1875 19.875 Z M-37.1875 19.875 C-37.1875 23.835 -37.1875 27.795 -37.1875 31.875 C-36.07375 32.4525 -34.96 33.03 -33.8125 33.625 C-31.70075137 34.85365375 -30.30836248 35.72786307 -28.75 37.625 C-27.58567124 42.28231505 -27.54720713 46.27426782 -29.3125 50.6875 C-31.61956247 53.37907288 -33.94711269 54.50683647 -37.1875 55.875 C-37.1875 59.835 -37.1875 63.795 -37.1875 67.875 C-25.3075 67.875 -13.4275 67.875 -1.1875 67.875 C-1.1875 65.235 -1.1875 62.595 -1.1875 59.875 C-5.1475 59.545 -9.1075 59.215 -13.1875 58.875 C-13.455625 57.781875 -13.72375 56.68875 -14 55.5625 C-14.81948485 51.97862078 -14.81948485 51.97862078 -16.734375 50.453125 C-19.23009071 47.74272407 -18.6449965 44.7514751 -18.55859375 41.234375 C-18.05961094 38.06189482 -16.51688076 36.98600131 -14.1875 34.875 C-13.85332071 31.2074787 -13.85332071 31.2074787 -14.1875 27.875 C-9.8975 27.875 -5.6075 27.875 -1.1875 27.875 C-1.1875 25.235 -1.1875 22.595 -1.1875 19.875 C-13.0675 19.875 -24.9475 19.875 -37.1875 19.875 Z M-77.1875 31.875 C-77.1875 32.865 -77.1875 33.855 -77.1875 34.875 C-74.7125 35.37 -74.7125 35.37 -72.1875 35.875 C-72.1875 41.155 -72.1875 46.435 -72.1875 51.875 C-73.8375 52.205 -75.4875 52.535 -77.1875 52.875 C-77.1875 53.865 -77.1875 54.855 -77.1875 55.875 C-74.2175 55.875 -71.2475 55.875 -68.1875 55.875 C-68.1875 47.955 -68.1875 40.035 -68.1875 31.875 C-71.1575 31.875 -74.1275 31.875 -77.1875 31.875 Z M-10.1875 31.875 C-10.1875 39.795 -10.1875 47.715 -10.1875 55.875 C-7.2175 55.875 -4.2475 55.875 -1.1875 55.875 C-1.1875 54.885 -1.1875 53.895 -1.1875 52.875 C-2.8375 52.545 -4.4875 52.215 -6.1875 51.875 C-6.1875 46.595 -6.1875 41.315 -6.1875 35.875 C-4.5375 35.545 -2.8875 35.215 -1.1875 34.875 C-1.1875 33.885 -1.1875 32.895 -1.1875 31.875 C-4.1575 31.875 -7.1275 31.875 -10.1875 31.875 Z M-44.8125 37.9375 C-47.56735297 40.71523426 -47.56735297 40.71523426 -47.1875 44.5 C-46.05691242 48.35317885 -46.05691242 48.35317885 -43.1875 50.875 C-42.5275 50.875 -41.8675 50.875 -41.1875 50.875 C-41.1875 45.925 -41.1875 40.975 -41.1875 35.875 C-42.61283738 35.77202974 -42.61283738 35.77202974 -44.8125 37.9375 Z M-37.1875 36.875 C-37.1875 41.495 -37.1875 46.115 -37.1875 50.875 C-32.98569816 50.3010261 -32.98569816 50.3010261 -31.1875 46.875 C-30.68739476 43.91730823 -30.68739476 43.91730823 -31.1875 40.875 C-32.93815833 38.45640803 -32.93815833 38.45640803 -35.1875 36.875 C-35.8475 36.875 -36.5075 36.875 -37.1875 36.875 Z M-77.1875 38.875 C-77.1875 42.175 -77.1875 45.475 -77.1875 48.875 C-76.5275 48.875 -75.8675 48.875 -75.1875 48.875 C-75.1875 45.575 -75.1875 42.275 -75.1875 38.875 C-75.8475 38.875 -76.5075 38.875 -77.1875 38.875 Z M-3.1875 38.875 C-3.1875 42.175 -3.1875 45.475 -3.1875 48.875 C-2.5275 48.875 -1.8675 48.875 -1.1875 48.875 C-1.1875 45.575 -1.1875 42.275 -1.1875 38.875 C-1.8475 38.875 -2.5075 38.875 -3.1875 38.875 Z M-64.1875 40.875 C-64.1875 42.855 -64.1875 44.835 -64.1875 46.875 C-63.8575 46.875 -63.5275 46.875 -63.1875 46.875 C-63.1875 44.895 -63.1875 42.915 -63.1875 40.875 C-63.5175 40.875 -63.8475 40.875 -64.1875 40.875 Z M-15.1875 40.875 C-15.5175 41.865 -15.8475 42.855 -16.1875 43.875 C-15.1975 45.36 -15.1975 45.36 -14.1875 46.875 C-14.1875 44.895 -14.1875 42.915 -14.1875 40.875 C-14.5175 40.875 -14.8475 40.875 -15.1875 40.875 Z " fill="#4B94CE" transform="translate(103.1875,20.125)"/>
</svg>
