<?xml version="1.0" encoding="UTF-8"?>
<svg version="1.1" xmlns="http://www.w3.org/2000/svg" width="128" height="128">
<path d="M0 0 C13.19264904 10.10461901 22.60996387 24.49121437 25.1953125 41.03515625 C27.02605836 61.36686956 23.7959458 77.31668963 11.203125 93.61328125 C1.44732269 105.26306715 -11.73947134 113.41928185 -26.8046875 116.03515625 C-39.43467097 116.90689445 -52.07306469 117.25872553 -63.8046875 112.03515625 C-64.67738281 111.67292969 -65.55007812 111.31070313 -66.44921875 110.9375 C-83.00430045 103.43558126 -92.81451314 90.23012903 -99.8046875 74.03515625 C-100.38283203 72.69710937 -100.38283203 72.69710937 -100.97265625 71.33203125 C-106.10764042 56.38512897 -103.5936963 38.35323171 -97.58984375 24.1640625 C-90.22045709 9.10488107 -76.63275453 -2.3727224 -61.39453125 -8.73828125 C-40.4016908 -15.91102543 -18.12967169 -12.70087028 0 0 Z " fill="#01897B" transform="translate(102.8046875,11.96484375)"/>
<path d="M0 0 C3.2885331 1.28242148 6.09804632 3.00459891 9 5 C9.57152802 5.29712891 10.14305603 5.59425781 10.73190308 5.90039062 C13.62240974 7.57063523 15.65173962 8.80851125 16.61671448 12.10993958 C16.81066402 14.73092738 16.78731563 17.26835114 16.68359375 19.89453125 C16.67368912 20.84188644 16.66378448 21.78924164 16.65357971 22.76530457 C16.61448256 25.78263055 16.52667187 28.7962794 16.4375 31.8125 C16.40237998 33.86127547 16.37044218 35.91010814 16.34179688 37.95898438 C16.27068808 42.975202 16.13374498 47.98350162 16 53 C2.14 53 -11.72 53 -26 53 C-26.061875 46.1525 -26.12375 39.305 -26.1875 32.25 C-26.21481201 30.0937207 -26.24212402 27.93744141 -26.27026367 25.71582031 C-26.279027 24.00326091 -26.2866713 22.29069525 -26.29296875 20.578125 C-26.30831665 19.6917334 -26.32366455 18.8053418 -26.33947754 17.89208984 C-26.34214137 11.63030264 -26.34214137 11.63030264 -24.64599609 8.50561523 C-22.43231469 6.48073045 -20.09879607 5.19098758 -17.4375 3.8125 C-16.46683594 3.30332031 -15.49617188 2.79414063 -14.49609375 2.26953125 C-9.47976222 -0.28181108 -5.6442201 -0.71967849 0 0 Z " fill="#ECF6F4" transform="translate(69,29)"/>
<path d="M0 0 C21.12 0 42.24 0 64 0 C64 2.31 64 4.62 64 7 C42.88 7 21.76 7 0 7 C0 4.69 0 2.38 0 0 Z " fill="#FFFFFE" transform="translate(32,92)"/>
<path d="M0 0 C17.82 0 35.64 0 54 0 C54 2.31 54 4.62 54 7 C36.18 7 18.36 7 0 7 C0 4.69 0 2.38 0 0 Z " fill="#F9FCFB" transform="translate(37,83)"/>
</svg>
