<?xml version="1.0" encoding="UTF-8"?>
<svg version="1.1" xmlns="http://www.w3.org/2000/svg" width="128" height="128">
<path d="M0 0 C15.56921414 10.82364286 26.2305434 25.03192514 30.125 43.75 C30.55819557 47.6570399 30.65026973 51.50853678 30.625 55.4375 C30.61927979 56.48188232 30.61355957 57.52626465 30.60766602 58.60229492 C30.18363377 77.14692382 22.5102429 91.91333263 9.125 104.75 C-3.53915933 115.12813696 -17.39531506 120.35202081 -33.75 120.1875 C-35.3270874 120.17722778 -35.3270874 120.17722778 -36.93603516 120.16674805 C-44.91290106 120.00207948 -51.52815505 119.02122293 -58.875 115.75 C-59.74769531 115.38777344 -60.62039062 115.02554688 -61.51953125 114.65234375 C-76.79570117 107.7299626 -87.84436076 95.10962165 -94.09765625 79.74609375 C-99.75563856 64.51618437 -100.75500398 45.7795325 -93.875 30.75 C-93.1634375 29.14511719 -93.1634375 29.14511719 -92.4375 27.5078125 C-84.89523746 12.09693952 -72.63455422 0.5722872 -56.375 -5.1875 C-37.73814183 -11.3787986 -16.99837717 -10.14228624 0 0 Z " fill="#216EB6" transform="translate(97.875,8.25)"/>
<path d="M0 0 C1.57995734 0.53862182 3.15534809 1.09222532 4.71484375 1.6875 C14.11477709 5.1236795 21.11125212 4.69509201 30.3046875 0.71484375 C33.01586743 -0.14701696 34.13657603 -0.08562768 36.75 0.9375 C41.47969879 3.89356175 43.93662241 7.75063224 45.75 12.9375 C45.75 14.2575 45.75 15.5775 45.75 16.9375 C26.61 16.9375 7.47 16.9375 -12.25 16.9375 C-11.19285907 9.53751352 -9.94269142 6.63019142 -4.8125 1.5 C-2.25 -0.0625 -2.25 -0.0625 0 0 Z " fill="#FAFCFD" transform="translate(47.25,62.0625)"/>
<path d="M0 0 C19.14 0 38.28 0 58 0 C58 3.63 58 7.26 58 11 C56.618125 10.979375 55.23625 10.95875 53.8125 10.9375 C51.40653561 10.90159008 49.30460914 10.92557243 46.96264648 11.49780273 C42.68680272 12.22259965 38.46981624 12.14242527 34.140625 12.1328125 C32.72314972 12.13424759 32.72314972 12.13424759 31.27703857 12.13571167 C29.28674248 12.13639047 27.29644415 12.13455711 25.30615234 12.13037109 C22.24702043 12.12499476 19.18803375 12.13033841 16.12890625 12.13671875 C14.19531217 12.13605838 12.26171819 12.13477808 10.328125 12.1328125 C9.40839905 12.13483673 8.4886731 12.13686096 7.54107666 12.13894653 C1.11496565 12.11496565 1.11496565 12.11496565 0 11 C0 7.37 0 3.74 0 0 Z " fill="#1C74BA" transform="translate(35,81)"/>
<path d="M0 0 C23.76 0 47.52 0 72 0 C72 2.97 72 5.94 72 9 C48.24 9 24.48 9 0 9 C0 6.03 0 3.06 0 0 Z " fill="#F3F7FB" transform="translate(28,94)"/>
<path d="M0 0 C0.01417969 0.60328125 0.02835938 1.2065625 0.04296875 1.828125 C0.28647015 5.90841872 0.44721362 8.31320481 3.0625 11.5625 C7.00249574 13.49058302 9.64682942 13.29513021 14 13 C13.02738378 16.27152729 12.34232413 17.74545129 9.5625 19.8125 C7 21 7 21 4 21 C5.37678994 25.97561428 7.83723972 27.62124621 12.125 30.3125 C13.22070312 31.00988281 14.31640625 31.70726563 15.4453125 32.42578125 C16.70988281 33.20501953 16.70988281 33.20501953 18 34 C14.78256003 37.93242663 10.75876191 38.81234054 5.8515625 39.3359375 C-1.29377516 39.4224428 -5.91558766 38.81767049 -12 35 C-8.77587871 31.35534115 -5.05480141 29.04937302 -0.92578125 26.5625 C1.28105668 24.77196212 1.64780066 23.76983885 2 21 C0.88625 20.9071875 0.88625 20.9071875 -0.25 20.8125 C-3.84889332 19.74919061 -4.91859246 18.04777533 -7 15 C-8.57455739 11.85088521 -8.34799118 9.47991184 -8 6 C-6.00425354 2.46313659 -4.30079384 0 0 0 Z " fill="#F5F9FC" transform="translate(61,26)"/>
<path d="M0 0 C19.14 0 38.28 0 58 0 C58 1.32 58 2.64 58 4 C38.86 4 19.72 4 0 4 C0 2.68 0 1.36 0 0 Z " fill="#FBFCFD" transform="translate(35,81)"/>
<path d="M0 0 C3.16664666 -0.02940458 6.33325747 -0.04693315 9.5 -0.0625 C10.386875 -0.07087891 11.27375 -0.07925781 12.1875 -0.08789062 C17.55823086 -0.10763596 22.68633663 0.21164107 28 1 C28 2.98 28 4.96 28 7 C18.76 7 9.52 7 0 7 C0 4.69 0 2.38 0 0 Z " fill="#4694CB" transform="translate(35,85)"/>
<path d="M0 0 C6.27 0 12.54 0 19 0 C19 2.31 19 4.62 19 7 C15.37 7 11.74 7 8 7 C8 5.02 8 3.04 8 1 C5.36 1 2.72 1 0 1 C0 0.67 0 0.34 0 0 Z " fill="#3181C0" transform="translate(55,85)"/>
<path d="M0 0 C2.64 0 5.28 0 8 0 C8 1.65 8 3.3 8 5 C5.36 5 2.72 5 0 5 C0 3.35 0 1.7 0 0 Z " fill="#F6F9FB" transform="translate(85,87)"/>
<path d="M0 0 C2.64 0 5.28 0 8 0 C8 1.65 8 3.3 8 5 C5.36 5 2.72 5 0 5 C0 3.35 0 1.7 0 0 Z " fill="#FDFEFE" transform="translate(75,87)"/>
<path d="M0 0 C2.64 0 5.28 0 8 0 C8 1.65 8 3.3 8 5 C5.36 5 2.72 5 0 5 C0 3.35 0 1.7 0 0 Z " fill="#FFFFFF" transform="translate(65,87)"/>
<path d="M0 0 C2.64 0 5.28 0 8 0 C8 1.65 8 3.3 8 5 C5.36 5 2.72 5 0 5 C0 3.35 0 1.7 0 0 Z " fill="#FFFFFF" transform="translate(55,87)"/>
<path d="M0 0 C2.64 0 5.28 0 8 0 C8 1.65 8 3.3 8 5 C5.36 5 2.72 5 0 5 C0 3.35 0 1.7 0 0 Z " fill="#FDFEFE" transform="translate(45,87)"/>
<path d="M0 0 C2.64 0 5.28 0 8 0 C8 1.65 8 3.3 8 5 C5.36 5 2.72 5 0 5 C0 3.35 0 1.7 0 0 Z " fill="#F6FAFC" transform="translate(35,87)"/>
<path d="M0 0 C1.26328125 0.11085938 2.5265625 0.22171875 3.828125 0.3359375 C4.79234375 0.43132812 5.7565625 0.52671875 6.75 0.625 C6.75 0.955 6.75 1.285 6.75 1.625 C3.78 1.625 0.81 1.625 -2.25 1.625 C-2.25 3.275 -2.25 4.925 -2.25 6.625 C-2.58 6.625 -2.91 6.625 -3.25 6.625 C-3.25 4.975 -3.25 3.325 -3.25 1.625 C-5.89 1.625 -8.53 1.625 -11.25 1.625 C-7.48564408 -0.86555871 -4.38382623 -0.40590984 0 0 Z " fill="#4E83BE" transform="translate(86.25,85.375)"/>
<path d="M0 0 C5.77759884 -0.12036664 11.27959989 0.1679418 17 1 C17 1.33 17 1.66 17 2 C14.36 2 11.72 2 9 2 C9 3.65 9 5.3 9 7 C8.67 7 8.34 7 8 7 C7.67 5.35 7.34 3.7 7 2 C4.69 1.67 2.38 1.34 0 1 C0 0.67 0 0.34 0 0 Z " fill="#3C8BC6" transform="translate(46,85)"/>
</svg>
