<?xml version="1.0" encoding="UTF-8"?>
<svg version="1.1" xmlns="http://www.w3.org/2000/svg" width="128" height="128">
<path d="M0 0 C14.66593153 10.19568513 25.60840641 23.74932626 29.74780273 41.46484375 C31.86603529 54.29763126 31.44584138 68.79991362 26.125 80.75 C25.76277344 81.62269531 25.40054688 82.49539062 25.02734375 83.39453125 C17.33536706 100.36902897 3.07751411 111.05081733 -13.734375 117.91796875 C-30.02500275 122.93228047 -49.3872321 120.84818754 -64.375 113.25 C-80.79373216 104.34772371 -91.48385123 89.95575147 -96.98828125 72.1484375 C-100.09059644 59.05712927 -99.35177869 43.05030624 -93.875 30.75 C-93.51277344 29.87730469 -93.15054688 29.00460938 -92.77734375 28.10546875 C-85.8549626 12.82929883 -73.23462165 1.78063924 -57.87109375 -4.47265625 C-38.93392049 -11.50790437 -17.48941603 -10.43527048 0 0 Z " fill="#0054B8" transform="translate(97.875,8.25)"/>
<path d="M0 0 C4.14302851 1.77817243 8.02200449 3.9593451 11.9375 6.1875 C12.98357422 6.76564453 14.02964844 7.34378906 15.10742188 7.93945312 C20.84679877 11.13200407 26.46614349 14.46392562 32 18 C31.69565472 21.05535634 31.53001681 22.55309726 29.13330078 24.57397461 C27.92649658 25.23151733 27.92649658 25.23151733 26.6953125 25.90234375 C25.80666504 26.39774658 24.91801758 26.89314941 24.00244141 27.40356445 C22.57810791 28.16286255 22.57810791 28.16286255 21.125 28.9375 C19.68713135 29.72483521 19.68713135 29.72483521 18.22021484 30.52807617 C16.3285067 31.56288002 14.43355885 32.59178715 12.53515625 33.61425781 C10.45941488 34.74887916 8.42585788 35.91811551 6.40625 37.1484375 C2.5103311 39.47942268 -0.05061448 40.95089385 -4.625 41.1875 C-9.0692006 39.62379979 -12.9939341 37.46177746 -17 35 C-17 35.66 -17 36.32 -17 37 C-16.29875 37.268125 -15.5975 37.53625 -14.875 37.8125 C-12 39 -12 39 -9.125 40.6875 C-5.34315366 42.27587546 -2.83864367 42.13241333 1 41 C4.53524803 39.34639297 7.8836491 37.40858704 11.25 35.4375 C13.02279219 34.40973901 14.79870409 33.38733488 16.578125 32.37109375 C17.74456543 31.6893811 17.74456543 31.6893811 18.93457031 30.99389648 C21 30 21 30 24 30 C24.0816082 32.37570543 24.14077222 34.74855841 24.1875 37.125 C24.21263672 37.79015625 24.23777344 38.4553125 24.26367188 39.140625 C24.33334384 43.87831838 23.49477911 46.98588858 21 51 C16.11342303 55.40983775 13.0339894 56.17161332 6.61328125 56.23828125 C5.51043037 56.25038887 5.51043037 56.25038887 4.38529968 56.26274109 C2.82598222 56.27658219 1.26663446 56.28730424 -0.29272461 56.29516602 C-2.66124269 56.31230994 -5.0283392 56.35618393 -7.39648438 56.40039062 C-8.91405227 56.41052412 -10.43163201 56.41903816 -11.94921875 56.42578125 C-12.65052414 56.44328934 -13.35182953 56.46079742 -14.0743866 56.47883606 C-19.56321674 56.45500137 -22.57863821 55.01094947 -27 52 C-28.55859375 49.859375 -28.55859375 49.859375 -29.4375 47.75 C-29.89962891 46.69039062 -29.89962891 46.69039062 -30.37109375 45.609375 C-30.57863281 45.07828125 -30.78617188 44.5471875 -31 44 C-31.33 44.99 -31.66 45.98 -32 47 C-33.65 47 -35.3 47 -37 47 C-37.02893932 43.37501666 -37.04677792 39.75006287 -37.0625 36.125 C-37.07087891 35.09246094 -37.07925781 34.05992188 -37.08789062 32.99609375 C-37.09272461 31.51689453 -37.09272461 31.51689453 -37.09765625 30.0078125 C-37.10289307 29.09660645 -37.10812988 28.18540039 -37.11352539 27.24658203 C-37 25 -37 25 -36 23 C-36.99 22.67 -37.98 22.34 -39 22 C-39 20.68 -39 19.36 -39 18 C-38.20827393 17.56131592 -37.41654785 17.12263184 -36.60083008 16.6706543 C-33.6465058 15.03316404 -30.69261679 13.39489393 -27.73901367 11.75610352 C-26.46379509 11.04876202 -25.18840686 10.34172625 -23.9128418 9.63500977 C-22.07295098 8.61556226 -20.23368538 7.59499456 -18.39453125 6.57421875 C-17.28956299 5.96151123 -16.18459473 5.34880371 -15.04614258 4.7175293 C-13.10476098 3.62290563 -11.18350688 2.49120083 -9.29199219 1.3125 C-5.82822464 -0.67101239 -3.97966701 -0.58094444 0 0 Z " fill="#FBFCFE" transform="translate(69,33)"/>
<path d="M0 0 C4.49324849 1.65770333 8.61186146 3.84982162 12.8125 6.125 C13.50537109 6.49753906 14.19824219 6.87007812 14.91210938 7.25390625 C16.60934836 8.16690377 18.30485138 9.08312716 20 10 C19.67 10.99 19.34 11.98 19 13 C19.70125 13.268125 20.4025 13.53625 21.125 13.8125 C24 15 24 15 26.875 16.6875 C30.65684634 18.27587546 33.16135633 18.13241333 37 17 C40.53524803 15.34639297 43.8836491 13.40858704 47.25 11.4375 C49.02279219 10.40973901 50.79870409 9.38733488 52.578125 8.37109375 C53.35575195 7.91661865 54.13337891 7.46214355 54.93457031 6.99389648 C57 6 57 6 60 6 C60.0816082 8.37570543 60.14077222 10.74855841 60.1875 13.125 C60.21263672 13.79015625 60.23777344 14.4553125 60.26367188 15.140625 C60.33334384 19.87831838 59.49477911 22.98588858 57 27 C52.11342303 31.40983775 49.0339894 32.17161332 42.61328125 32.23828125 C41.51043037 32.25038887 41.51043037 32.25038887 40.38529968 32.26274109 C38.82598222 32.27658219 37.26663446 32.28730424 35.70727539 32.29516602 C33.33875731 32.31230994 30.9716608 32.35618393 28.60351562 32.40039062 C27.08594773 32.41052412 25.56836799 32.41903816 24.05078125 32.42578125 C23.34947586 32.44328934 22.64817047 32.46079742 21.9256134 32.47883606 C16.43678326 32.45500137 13.42136179 31.01094947 9 28 C7.44140625 25.859375 7.44140625 25.859375 6.5625 23.75 C6.25441406 23.04359375 5.94632813 22.3371875 5.62890625 21.609375 C5.42136719 21.07828125 5.21382812 20.5471875 5 20 C4.67 20.99 4.34 21.98 4 23 C2.35 23 0.7 23 -1 23 C-1.02887512 19.35418313 -1.04675585 15.70839537 -1.0625 12.0625 C-1.07087891 11.02158203 -1.07925781 9.98066406 -1.08789062 8.90820312 C-1.09272461 7.42416992 -1.09272461 7.42416992 -1.09765625 5.91015625 C-1.10289307 4.99371338 -1.10812988 4.07727051 -1.11352539 3.13305664 C-1 1 -1 1 0 0 Z " fill="#F6F9FC" transform="translate(33,57)"/>
<path d="M0 0 C4.49324849 1.65770333 8.61186146 3.84982162 12.8125 6.125 C13.50537109 6.49753906 14.19824219 6.87007812 14.91210938 7.25390625 C16.60934836 8.16690377 18.30485138 9.08312716 20 10 C19.67 10.66 19.34 11.32 19 12 C14.50202887 10.31326082 10.27113698 8.18326108 6 6 C6.02320313 6.97582031 6.04640625 7.95164062 6.0703125 8.95703125 C6.09738281 10.86548828 6.09738281 10.86548828 6.125 12.8125 C6.14820313 14.07707031 6.17140625 15.34164062 6.1953125 16.64453125 C6 20 6 20 4 23 C1.375 23.1875 1.375 23.1875 -1 23 C-1.02887512 19.35418313 -1.04675585 15.70839537 -1.0625 12.0625 C-1.07087891 11.02158203 -1.07925781 9.98066406 -1.08789062 8.90820312 C-1.09272461 7.42416992 -1.09272461 7.42416992 -1.09765625 5.91015625 C-1.10289307 4.99371338 -1.10812988 4.07727051 -1.11352539 3.13305664 C-1 1 -1 1 0 0 Z " fill="#266FC4" transform="translate(33,57)"/>
<path d="M0 0 C2.25 0.125 2.25 0.125 5 1 C7.72017237 4.1612814 8.91873404 6.13858082 9.3125 10.3125 C9 13 9 13 8 14 C6.00200428 14.09873816 4.00042842 14.12971799 2 14.125 C0.906875 14.12757812 -0.18625 14.13015625 -1.3125 14.1328125 C-4 14 -4 14 -5 13 C-5.60535108 8.76254244 -4.93647336 6.51128501 -2.5 3.125 C-1.68006717 2.07275286 -0.85100278 1.02728193 0 0 Z " fill="#F7F9FC" transform="translate(32,81)"/>
<path d="M0 0 C0.66 0.33 1.32 0.66 2 1 C-0.44787802 4.67181703 -2.47600914 5.42504269 -6.4375 7.3125 C-11.07176866 9.52901917 -15.51919971 11.86742941 -19.9375 14.5 C-23.24018964 16.29839888 -24.80408616 16.98986653 -28.625 17.1875 C-33.0692006 15.62379979 -36.9939341 13.46177746 -41 11 C-41 10.34 -41 9.68 -41 9 C-37.85738073 9.9500942 -35.27551036 10.80926206 -32.5625 12.6875 C-29.07154238 14.47555147 -26.63171315 14.12414947 -23 13 C-18.93614943 11.00327632 -15.07090846 8.69969536 -11.1875 6.375 C-9.12270646 5.14653033 -7.05389464 3.92478064 -4.98046875 2.7109375 C-4.07192139 2.16743652 -3.16337402 1.62393555 -2.22729492 1.06396484 C-1.4922876 0.71285645 -0.75728027 0.36174805 0 0 Z " fill="#1C66BF" transform="translate(93,59)"/>
<path d="M0 0 C1.32 0.33 2.64 0.66 4 1 C4 7.27 4 13.54 4 20 C2.68 20 1.36 20 0 20 C0 13.4 0 6.8 0 0 Z " fill="#FAFCFD" transform="translate(32,59)"/>
<path d="M0 0 C0.66 0.33 1.32 0.66 2 1 C-0.17510408 4.26265612 -1.12949953 4.73936409 -4.625 6.1875 C-5.85089844 6.70376953 -5.85089844 6.70376953 -7.1015625 7.23046875 C-8.04128906 7.61138672 -8.04128906 7.61138672 -9 8 C-9 7.01 -9 6.02 -9 5 C-7.54735962 4.1361871 -6.0876837 3.28419546 -4.625 2.4375 C-3.40683594 1.72400391 -3.40683594 1.72400391 -2.1640625 0.99609375 C-1.44992188 0.66738281 -0.73578125 0.33867188 0 0 Z " fill="#246AC0" transform="translate(93,59)"/>
</svg>
